<svg width="172" height="151" viewBox="0 0 172 151" fill="none" xmlns="http://www.w3.org/2000/svg">
<path d="M171.862 88.2622C171.842 88.6757 171.822 89.0852 171.798 89.4987C171.666 91.8593 171.469 94.2078 171.208 96.5163C171.16 96.9338 171.112 97.3513 171.06 97.7648C170.674 100.928 170.164 104.004 169.546 106.922C169.454 107.38 169.353 107.825 169.253 108.275V108.279C166.852 118.854 162.97 127.128 157.968 129.44C151.858 132.271 146.546 132.267 141.853 130.52C141.853 130.524 141.853 130.524 141.849 130.52C141.315 130.328 140.785 130.107 140.267 129.862C136.566 128.14 133.262 125.353 130.267 122.093C129.958 121.76 129.653 121.419 129.351 121.074C125.212 116.353 121.663 110.808 118.444 106.083C118.44 106.079 118.44 106.079 118.444 106.075L118.44 106.071C117.99 105.409 117.548 104.778 117.107 104.156C116.505 103.297 115.914 102.474 115.328 101.703C114.252 100.286 113.209 99.0374 112.185 98.0378C111.763 97.6203 111.342 97.2509 110.928 96.9257C109.539 95.8418 108.178 95.2797 106.817 95.4203C105.324 95.5768 103.871 96.7571 102.405 98.6761C102.128 99.0334 101.855 99.4229 101.578 99.8323C101.317 100.226 101.052 100.639 100.787 101.073C100.53 101.494 100.273 101.936 100.017 102.398C99.7917 102.787 99.5709 103.189 99.3501 103.606C98.9808 104.301 98.6034 105.031 98.23 105.79V105.794C98.0132 106.228 97.7964 106.665 97.5797 107.115C96.584 109.178 95.5683 111.423 94.5165 113.767C94.3358 114.169 94.1552 114.57 93.9745 114.976C93.0512 117.039 92.0997 119.171 91.1081 121.319C90.8913 121.792 90.6705 122.266 90.4497 122.744C88.8799 126.108 87.2139 129.476 85.4274 132.66V132.664C85.1865 133.09 84.9456 133.511 84.7007 133.929C82.5087 137.702 80.1321 141.155 77.5145 143.941C77.2255 144.25 76.9364 144.547 76.6393 144.84C71.8137 149.606 66.1973 152.059 59.4768 150.14C57.9994 149.718 56.5782 149.112 55.2132 148.337C45.1967 142.664 38.1671 128.003 34.1524 111.097C33.8754 109.937 33.6105 108.765 33.3656 107.585C30.8323 95.5327 29.7805 82.6096 30.2141 71.1357C30.2141 71.1357 30.2141 71.1357 30.2141 71.1317C30.2743 69.6503 30.3546 68.201 30.459 66.7758V66.7718C30.6878 63.6565 31.0371 60.6896 31.5028 57.9035V57.8995C31.8601 55.7677 32.2856 53.7524 32.7834 51.8695V51.8655C32.9962 51.0505 33.221 50.2596 33.4619 49.4968C33.6426 48.9268 33.8272 48.3768 34.0199 47.8388C36.0995 42.0577 38.3076 36.6982 40.901 31.8164C41.0857 31.4591 41.2784 31.1058 41.4751 30.7565C44.0686 26.0313 47.0515 21.7758 50.6566 18.0341C50.9416 17.7411 51.2307 17.448 51.5238 17.1589C53.1095 15.5892 54.8198 14.1159 56.6625 12.7428C56.9917 12.498 57.3289 12.2531 57.6662 12.0202C60.3359 10.1293 63.2826 8.44719 66.5586 6.97783C66.9681 6.79316 67.3776 6.61651 67.7951 6.43987C71.1272 5.03475 74.7886 3.83838 78.8313 2.86684C79.2207 2.77451 79.6102 2.68217 80.0036 2.59385C84.5361 1.57011 89.5383 0.815363 95.0785 0.349665C95.476 0.313533 95.8775 0.281416 96.2829 0.253314C96.7767 0.213167 97.2746 0.177036 97.7764 0.144919C102.871 -0.192311 107.664 0.0686405 112.165 0.827407C112.655 0.907699 113.14 0.996021 113.622 1.09237C121.932 2.70626 129.231 6.02235 135.598 10.3822C135.931 10.6111 136.261 10.8439 136.586 11.0768C140.408 13.7987 143.88 16.894 147.02 20.2221C147.357 20.5754 147.69 20.9327 148.016 21.294C151.464 25.0758 154.503 29.1226 157.153 33.2335C157.518 33.7876 157.871 34.3496 158.213 34.9076C158.213 34.9076 158.217 34.9117 158.213 34.9157C161.131 39.6249 163.544 44.3661 165.495 48.8465C165.692 49.3001 165.885 49.7498 166.073 50.1954C166.864 52.0742 167.571 53.9009 168.197 55.6473C168.852 57.4739 169.418 59.4451 169.899 61.5367C170 61.9743 170.096 62.4159 170.188 62.8656V62.8696C170.891 66.2419 171.381 69.8872 171.67 73.677C171.718 74.2631 171.758 74.8493 171.794 75.4434C172.047 79.6267 172.063 83.9585 171.862 88.2622Z" fill="#F3C484"/>
<path d="M55.2133 148.337C47.5413 143.993 41.6238 134.374 37.4686 122.515C33.45 111.061 31.0773 97.5119 30.3587 84.6048C29.8167 74.9697 30.1981 65.6879 31.5029 57.9035C32.3219 65.0857 33.446 74.1427 34.6985 82.0475C35.6901 88.3184 36.762 93.8586 37.8259 97.1666C39.227 101.527 42.3183 108.962 45.5099 117.083C49.9301 128.304 54.5509 140.83 55.2133 148.337Z" fill="#D8A160"/>
<path d="M45.5099 117.083C42.8683 118.826 40.1464 120.664 37.4686 122.515C25.4809 130.777 14.272 139.196 14.272 139.196L0 110.612C11.1567 104.734 17.7005 92.9352 28.1306 85.9337C28.2911 85.8253 29.1864 85.2953 30.3587 84.6048C31.6674 83.834 33.3255 82.8584 34.6985 82.0475C35.6901 88.3183 36.762 93.8585 37.8259 97.1666C39.227 101.527 42.3183 108.962 45.5099 117.083Z" fill="#EDEBE6"/>
<path d="M37.8259 97.1666C36.762 93.8585 35.6901 88.3183 34.6985 82.0475C33.5298 82.7376 32.1564 83.5465 30.9657 84.2475C31.5366 89.5701 33.0529 94.9104 35.5215 99.5393C39.2037 106.054 40.2873 113.167 40.8887 120.176C42.4399 119.124 43.9884 118.087 45.5099 117.083C42.3183 108.962 39.227 101.527 37.8259 97.1666Z" fill="#DED9CE"/>
<path d="M115.461 100.812C115.437 101.109 115.393 101.41 115.328 101.703C112.338 97.7528 109.584 95.1312 106.817 95.4203C104.778 95.6331 102.803 97.7608 100.787 101.073C100.631 98.9331 101.028 96.432 101.044 94.8823C101.141 85.9618 101.691 77.0453 102.698 68.185C102.879 66.5872 103.686 64.4956 105.272 64.7565C106.4 64.9452 106.902 66.2499 107.195 67.354C109.688 76.7081 112.177 86.0582 114.666 95.4123C115.136 97.1787 115.613 98.9893 115.461 100.812Z" fill="#EDB972"/>
<path d="M85.4273 132.66V132.664C85.1865 133.09 84.9456 133.511 84.7007 133.929C78.6747 121.182 69.7662 109.741 58.8344 100.888C56.534 99.0254 54.1011 97.2389 51.7445 95.5086C47.5814 92.4495 43.2737 89.2859 39.524 85.5804C37.4966 83.5731 35.7422 81.4815 34.2849 79.3417C34.1323 78.3621 33.9878 77.3705 33.8473 76.3708C35.9028 79.9479 38.4521 82.8304 40.3711 84.7213C44.0565 88.3666 48.3281 91.506 52.4591 94.5371C54.8238 96.2754 57.2687 98.074 59.5932 99.9528C70.4447 108.741 79.3291 120.05 85.4273 132.66Z" fill="#EDEBE6"/>
<path d="M77.5145 143.941C77.2255 144.25 76.9364 144.547 76.6393 144.84C74.4795 140.802 71.5247 137.582 69.0115 135.314C63.9691 130.761 57.8629 127.345 52.0376 124.233L51.2066 123.788C49.9099 123.097 48.6011 122.399 47.2964 121.672C47.0675 121.078 46.8387 120.484 46.6099 119.893C48.3161 120.881 50.0544 121.808 51.7727 122.724L52.6037 123.169C58.4932 126.317 64.6757 129.778 69.8185 134.418C72.3477 136.699 75.3025 139.91 77.5145 143.941Z" fill="#612613"/>
<path d="M91.1081 121.319C90.8913 121.792 90.6705 122.266 90.4497 122.744C89.6949 121.178 88.9924 119.46 88.334 117.565C87.6113 115.477 86.977 113.326 86.3628 111.246C85.4996 108.311 84.6044 105.276 83.4482 102.406C79.7306 93.2042 73.0663 85.2191 64.6757 79.9238C61.7772 78.0931 58.5935 76.5234 55.5143 75.0059C49.5285 72.0551 43.3339 69 38.8937 63.8693C35.8105 60.3043 33.9075 56.117 32.7834 51.8695V51.8655C32.9962 51.0505 33.221 50.2596 33.4619 49.4969C34.4455 54.2823 36.3565 59.0959 39.801 63.0784C44.0846 68.0284 50.1668 71.0274 56.0483 73.9259C59.1556 75.4555 62.3673 77.0413 65.3181 78.9041C73.9214 84.3359 80.7543 92.5217 84.5642 101.956C85.7445 104.879 86.6478 107.942 87.519 110.905C88.1292 112.972 88.7555 115.108 89.4741 117.172C89.992 118.665 90.534 120.042 91.1081 121.319Z" fill="#612613"/>
<path d="M98.2301 105.79V105.794C98.0133 106.228 97.7966 106.665 97.5798 107.115C97.4152 106.822 97.2506 106.525 97.09 106.22C96.4918 105.096 95.9217 103.931 95.3677 102.807C93.8421 99.6959 92.2604 96.4801 89.9881 93.8586C89.7071 93.5374 88.7355 92.5137 88.0008 92.8589C87.5673 93.0637 87.3465 93.702 87.3465 94.7538C87.3304 101.723 89.952 108.556 94.5166 113.767C94.3359 114.169 94.1553 114.57 93.9746 114.976C88.9965 109.496 86.122 102.197 86.1421 94.7538C86.1461 93.1962 86.5957 92.1925 87.487 91.771C88.5147 91.2852 89.7552 91.7589 90.8954 93.0677C93.2721 95.8057 94.89 99.0977 96.4476 102.277C96.9976 103.393 97.5637 104.546 98.1539 105.654C98.1779 105.698 98.202 105.746 98.2301 105.79Z" fill="#EDEBE6"/>
<path d="M100.017 102.398C99.7918 102.787 99.571 103.189 99.3502 103.606C97.2144 100.218 96.1787 96.155 95.167 92.1885C94.0228 87.6881 92.8385 83.0351 90.0603 79.4621C87.3304 75.9573 83.2475 73.7252 79.2971 71.5693C75.3066 69.3894 71.1795 67.1372 68.297 63.5441C66.3258 61.0831 65.0732 58.1604 63.8648 55.3301C63.3831 54.202 62.8813 53.0297 62.3433 51.9137C57.9954 42.8807 50.1468 35.6464 40.9011 31.8164C41.0858 31.4591 41.2785 31.1058 41.4752 30.7565C50.9417 34.7109 58.975 42.13 63.4313 51.3918C63.9773 52.5319 64.4831 53.7162 64.9729 54.8564C66.1492 57.6104 67.3656 60.4568 69.2364 62.7893C71.9704 66.1977 75.985 68.3897 79.8712 70.5135C83.93 72.7296 88.1293 75.0179 91.0118 78.7234C93.9425 82.4932 95.1589 87.2706 96.3352 91.8914C97.3028 95.6852 98.2301 99.3305 100.017 102.398Z" fill="#612613"/>
<path d="M66.2535 34.0646C65.86 34.2492 65.4546 34.3416 65.037 34.3416C63.7443 34.3416 62.3392 33.4664 60.906 31.7562C57.2446 27.3882 53.8161 22.7955 50.6566 18.0341C50.9417 17.7411 51.2307 17.448 51.5238 17.1589C54.6953 21.9604 58.1439 26.5853 61.8293 30.9813C62.6885 32.0091 64.3425 33.635 65.7356 32.9726C67.0444 32.3543 66.9641 30.1945 66.9079 29.5481C66.5626 25.5937 64.7038 21.4867 61.5323 17.6688C60.0589 15.8943 58.4008 14.2724 56.6625 12.7428C56.9917 12.4979 57.3289 12.2531 57.6662 12.0202C59.3684 13.5337 60.9983 15.1356 62.4596 16.898C65.7878 20.9086 67.7429 25.2444 68.1082 29.4437C68.305 31.7281 67.6305 33.4102 66.2535 34.0646Z" fill="#612613"/>
<path d="M102.405 98.6761C102.128 99.0335 101.855 99.4229 101.578 99.8324C99.6514 95.4082 99.1335 90.4421 98.9327 86.6041C98.8725 85.4359 98.8284 84.2395 98.7882 83.0793C98.5875 77.5712 98.3827 71.8704 96.2189 66.8361C94.3882 62.5846 91.2166 58.9473 88.1454 55.4305C84.5684 51.3315 80.8709 47.0921 79.2129 41.8128C78.2012 38.5851 78.0285 35.1766 77.8639 31.8846C77.7596 29.793 77.6512 27.6372 77.326 25.5616C76.1979 18.3352 72.2234 11.5987 66.5587 6.97784C66.9682 6.79317 67.3777 6.61652 67.7952 6.43988C73.4318 11.2334 77.3741 18.0623 78.5183 25.3769C78.8515 27.5127 78.9599 29.7047 79.0683 31.8244C79.2289 35.0442 79.3975 38.3723 80.365 41.4515C81.9428 46.4899 85.3994 50.4483 89.0567 54.6396C92.1841 58.2247 95.4199 61.9342 97.3229 66.3583C99.5791 71.6014 99.7879 77.4146 99.9926 83.0391C100.033 84.1913 100.077 85.3837 100.137 86.5439C100.318 90.0808 100.779 94.5933 102.405 98.6761Z" fill="#EDEBE6"/>
<path d="M101.923 40.223C101.59 42.0377 100.081 43.8764 98.1096 43.8764H98.0012C96.3753 43.8202 95.1388 42.5636 94.3519 41.6242C91.5778 38.3121 89.8113 34.2613 88.2456 30.3992C84.6043 21.4386 81.4488 12.2049 78.8313 2.86685C79.2207 2.77452 79.6101 2.68218 80.0036 2.59386C82.6091 11.8717 85.7485 21.0411 89.3617 29.9456C90.8913 33.7193 92.6135 37.6738 95.2753 40.8493C95.9136 41.6121 96.8972 42.6318 98.0413 42.672C99.4023 42.7041 100.498 41.3231 100.739 40.0063C101.008 38.5409 100.575 36.9792 100.157 35.4697L100.129 35.3734C96.9654 23.9397 95.2712 12.1848 95.0785 0.349678C95.476 0.313546 95.8774 0.281429 96.2829 0.253326C96.4676 12.0122 98.1457 23.6948 101.289 35.0522L101.317 35.1485C101.771 36.7865 102.241 38.4847 101.923 40.223Z" fill="#612613"/>
<path d="M136.586 11.0768C133.587 14.6819 131.15 19.4393 129.215 25.4572C128.276 28.3799 127.489 31.4109 126.726 34.3456C125.526 38.9625 124.285 43.7359 122.418 48.2282C121.868 49.545 121.117 50.9582 119.7 51.456C119.391 51.5644 119.07 51.6166 118.745 51.6166C118.203 51.6166 117.653 51.468 117.131 51.179C116.055 50.5808 115.22 49.4527 114.951 48.2363C114.549 46.4096 115.075 44.6231 115.581 42.8968L115.678 42.5716C119.676 28.8616 118.331 13.6943 112.165 0.827423C112.655 0.907716 113.14 0.996038 113.622 1.09239C119.592 14.0516 120.832 29.1948 116.834 42.9088L116.737 43.234C116.272 44.8158 115.79 46.4538 116.127 47.9753C116.32 48.8505 116.946 49.6976 117.717 50.1272C118.09 50.3359 118.673 50.5407 119.303 50.3199C120.27 49.9786 120.836 48.8907 121.306 47.7666C123.141 43.3505 124.369 38.6212 125.558 34.0445C126.324 31.0938 127.119 28.0426 128.071 25.0879C130.042 18.9655 132.527 14.0958 135.598 10.3823C135.931 10.6111 136.261 10.8439 136.586 11.0768Z" fill="#EDEBE6"/>
<path d="M148.016 21.294C147.092 25.1642 145.205 29.1547 142.427 33.0409C139.918 36.5456 136.943 39.7373 134.065 42.8286C132.081 44.9563 130.034 47.1563 128.163 49.4286C117.171 62.7974 111.438 80.6665 112.185 98.0378C111.763 97.6203 111.342 97.251 110.928 96.9258C110.736 90.3899 111.438 83.7538 113.02 77.2942C115.617 66.7156 120.531 56.8155 127.232 48.6618C129.127 46.3614 131.19 44.1454 133.185 42.0056C136.036 38.9464 138.987 35.7829 141.448 32.3423C144.33 28.3116 146.213 24.1806 147.02 20.2221C147.357 20.5754 147.69 20.9327 148.016 21.294Z" fill="#612613"/>
<path d="M158.213 34.9077C158.213 34.9077 158.217 34.9117 158.213 34.9157C158.052 36.7343 157.848 38.5811 157.442 40.3435C155.37 49.3162 148.068 55.9404 141.203 61.2357C140.352 61.8901 139.493 62.5404 138.633 63.1948C132.479 67.8679 126.116 72.6975 122.386 79.3979C117.878 87.5075 117.814 97.3032 118.44 106.071C117.99 105.409 117.549 104.778 117.107 104.156C116.633 95.7495 117.011 86.5881 121.334 78.8158C125.184 71.8905 131.652 66.9846 137.903 62.2353C138.762 61.5849 139.617 60.9346 140.464 60.2802C147.165 55.1174 154.282 48.6739 156.266 40.0745C156.735 38.0351 156.928 35.8351 157.113 33.7033C157.125 33.5467 157.141 33.3902 157.153 33.2336C157.518 33.7876 157.872 34.3496 158.213 34.9077Z" fill="#612613"/>
<path d="M170.188 62.8656V62.8696C168.824 64.0178 167.495 65.2383 166.182 66.4467C161.477 70.7744 156.615 75.2508 150.316 76.3829C149.85 76.4632 149.421 76.5073 149.027 76.5073C148.1 76.5073 147.365 76.2705 146.815 75.7967C145.193 74.4117 145.876 71.9628 147.048 70.1361C149.549 66.2459 152.889 62.966 156.117 59.7944C157.486 58.4535 158.899 57.0645 160.224 55.6513C162.412 53.3228 164.167 51.0586 165.495 48.8465C165.692 49.3002 165.885 49.7498 166.073 50.1954C164.765 52.2509 163.111 54.3385 161.103 56.4783C159.758 57.9075 158.337 59.3046 156.96 60.6535C153.781 63.7809 150.489 67.0127 148.064 70.7865C147.205 72.1234 146.566 73.9982 147.598 74.8814C148.092 75.307 148.911 75.4113 150.103 75.1946C156.057 74.1267 160.79 69.7708 165.367 65.5594C166.848 64.1985 168.346 62.8214 169.899 61.5368C170 61.9744 170.096 62.416 170.188 62.8656Z" fill="#612613"/>
<path d="M171.863 88.2622C171.843 88.6757 171.823 89.0852 171.798 89.4987C164.034 91.0122 156.599 94.0272 149.943 98.3951C148.357 99.4389 146.779 100.579 145.258 101.679C141.737 104.232 138.092 106.87 133.973 108.536C132.724 109.042 131.58 109.291 130.572 109.291C129.364 109.291 128.352 108.93 127.613 108.211C125.514 106.167 126.726 102.707 128.741 100.358C133.322 95.0108 139.673 91.8151 145.282 89.3943C146.835 88.7239 148.425 88.0695 149.967 87.4432C154.411 85.6246 159.008 83.7457 163.127 81.1924C165.893 79.4822 169.145 76.9971 171.67 73.677C171.718 74.2631 171.758 74.8493 171.794 75.4434C169.309 78.3862 166.335 80.6263 163.761 82.2161C159.554 84.8216 154.913 86.7206 150.42 88.5552C148.887 89.1855 147.301 89.8319 145.759 90.4983C140.28 92.867 134.077 95.9823 129.657 101.141C128.272 102.759 126.806 105.742 128.452 107.348C129.793 108.653 132.206 107.954 133.523 107.42C137.505 105.81 141.086 103.213 144.551 100.704C146.085 99.5955 147.67 98.4433 149.28 97.3874C156.153 92.875 163.837 89.7837 171.863 88.2622Z" fill="#EDEBE6"/>
<path d="M171.208 96.5163C171.16 96.9338 171.112 97.3513 171.06 97.7648C165.913 98.7003 160.939 100.692 156.611 103.594C153.5 105.682 150.657 108.267 147.915 110.768C145.912 112.587 143.845 114.47 141.669 116.168C138.714 118.468 134.719 120.969 130.267 122.094C129.958 121.76 129.653 121.419 129.352 121.074C133.856 120.086 137.943 117.545 140.93 115.216C143.07 113.55 145.121 111.684 147.104 109.877C149.883 107.348 152.753 104.734 155.941 102.594C160.509 99.5313 165.768 97.4517 171.208 96.5163Z" fill="#612613"/>
<path d="M169.546 106.922C169.454 107.38 169.353 107.826 169.253 108.275V108.279C162.496 110.443 156.515 113.386 152.532 118.585C151.669 119.709 150.898 120.953 150.155 122.154C148.855 124.249 147.514 126.421 145.615 128.107C144.475 129.123 143.21 129.91 141.853 130.52C141.853 130.524 141.853 130.524 141.849 130.52C141.315 130.328 140.785 130.107 140.267 129.862C141.945 129.248 143.479 128.393 144.812 127.208C146.578 125.634 147.819 123.635 149.132 121.519C149.89 120.291 150.677 119.022 151.577 117.854C155.88 112.234 162.32 109.17 169.546 106.922Z" fill="#EDEBE6"/>
<path d="M37.8372 48.1684C37.4257 49.256 37.0639 50.3817 37.019 51.5439C36.974 52.7062 37.2771 53.921 38.0564 54.7841C38.7549 55.5581 40.0067 55.9713 40.8513 55.3598C41.2628 55.0619 41.4993 54.585 41.7197 54.1273C43.4488 50.5403 45.1779 46.9532 46.9066 43.3657C47.2531 42.6467 47.604 41.914 47.7224 41.1243C47.8404 40.335 47.6923 39.4659 47.1463 38.8838C43.1473 34.619 38.7336 45.799 37.8372 48.1684Z" fill="#F3D4AA"/>
<path d="M99.0286 5.88104C98.3634 6.61452 97.7821 7.64427 98.1747 8.55359C98.5365 9.39184 99.5955 9.71944 100.5 9.59619C101.405 9.47294 102.223 9.01527 103.079 8.69771C104.806 8.05698 106.74 7.99234 108.506 8.51625C109.219 8.72782 109.912 9.03414 110.653 9.11042C111.393 9.1867 112.223 8.97633 112.64 8.36008C113.075 7.71694 112.922 6.80883 112.466 6.18054C112.01 5.55225 111.311 5.14958 110.613 4.80753C106.359 2.71872 102.51 2.04386 99.0286 5.88104Z" fill="#F3D4AA"/>
<path d="M125.968 12.9243C126.728 13.2162 127.512 13.5125 128.325 13.4908C129.139 13.4687 129.997 13.048 130.286 12.2872C130.686 11.2297 129.864 10.1173 129.01 9.37498C127.553 8.10796 119.696 3.64529 118.365 6.79236C117.143 9.6817 124.377 12.3125 125.968 12.9243Z" fill="#F3D4AA"/>
</svg>
