<svg width="191" height="191" viewBox="0 0 191 191" fill="none" xmlns="http://www.w3.org/2000/svg">
<path d="M176.654 128.762C167.427 143.624 152.922 156.524 133.315 164.776C112.582 173.497 97.3322 175.847 86.7305 175.112C75.2366 174.315 69.2046 169.902 67.5508 166.064C62.5937 154.548 72.016 136.491 78.4093 122.221C78.5224 121.968 78.6356 121.72 78.7444 121.472C82.4872 113.055 85.0506 106.048 82.7657 102.619C80.8334 99.7203 74.2443 101.592 65.4835 104.847C62.659 105.9 59.6082 107.093 56.4181 108.32C37.8215 115.466 14.4202 123.644 2.81749 110.357C-13.1722 92.0475 41.2466 3.90429 106.493 1.52368C141.828 0.231107 178.312 29.9299 187.216 73.4771C190.95 91.7385 187.338 111.562 176.654 128.762Z" fill="#F3C484"/>
<path d="M176.654 128.762C171.736 136.683 165.317 144.047 157.426 150.444C150.515 156.054 142.468 160.924 133.316 164.776C131.144 165.69 129.033 166.534 126.979 167.309C109.44 173.954 96.2225 175.769 86.7306 175.112C87.279 172.714 89.616 170.708 91.853 169.345C100.84 163.866 111.255 161.333 121.352 158.369C122.126 158.143 122.901 157.912 123.671 157.677C134.443 154.426 145.049 150.522 154.932 145.178C155.437 144.908 155.938 144.63 156.438 144.351C161.413 141.561 166.183 138.389 170.613 134.79C172.763 133.044 174.7 130.873 176.654 128.762Z" fill="#D8A160"/>
<path d="M170.195 175.238L137.702 190.305C134.382 186.571 130.169 176.161 126.979 167.309C125.656 163.631 124.507 160.223 123.671 157.677C134.443 154.426 145.049 150.522 154.932 145.178C155.655 146.767 156.504 148.555 157.426 150.444C162.653 161.176 170.195 175.238 170.195 175.238Z" fill="#EDEBE6"/>
<path d="M154.932 145.178C145.049 150.522 134.443 154.426 123.671 157.677C124.042 158.808 124.478 160.114 124.96 161.533C135.712 157.55 147.289 154.785 155.987 147.449C155.614 146.659 155.259 145.896 154.932 145.178Z" fill="#DED9CE"/>
<path d="M88.9589 107.093C86.7785 112.55 82.4786 117.943 78.4094 122.221C78.5226 121.968 78.6357 121.72 78.7445 121.472C82.4873 113.055 85.0507 106.048 82.7659 102.619C80.8335 99.7203 74.2444 101.592 65.4836 104.847C76.9819 96.1168 79.3625 88.5571 86.7306 84.3095C93.4372 80.4405 93.385 96.0123 88.9589 107.093Z" fill="#EDB972"/>
<path d="M125.837 1.48319C159.376 7.69539 181.821 39.8231 188.748 71.3907C192.668 89.2578 191.934 108.55 182.834 124.798C181.27 127.591 179.454 130.481 176.834 132.406C172.394 135.666 166.192 135.613 160.949 136.128C154.505 136.762 148.112 137.433 141.758 135.702C133.586 133.475 126.046 126.529 126.019 118.059C125.999 111.982 129.614 105.378 126.391 100.226C124.521 97.2352 120.74 95.6946 119.296 92.4771C116.492 86.2292 126.291 77.713 121.689 72.6419C117.842 68.4025 117.888 61.9966 115.263 60.5813C108.856 57.1275 103.617 60.6823 97.21 57.2285C93.1899 55.0616 87.6967 52.1169 83.1435 51.7592C76.7707 51.2583 70.8136 54.8727 64.4695 55.66C49.7559 57.4866 50.0501 51.495 43.0502 45.8808C40.0485 43.4732 31.3038 42.6459 32.9402 38.3573C34.5309 34.1897 38.9422 30.7964 42.1454 27.8596C45.8934 24.4236 49.8686 21.2352 54.0336 18.3185C75.1069 3.56132 100.348 -3.23798 125.837 1.48319Z" fill="#612613"/>
<path d="M141.376 126.46C137.894 126.024 135.283 121.672 134.848 118.626C134.848 107.746 136.153 97.3005 131.801 86.4203C129.19 79.0217 132.236 69.447 126.579 62.4837C118.745 53.3442 107.864 51.1682 96.1138 48.5569C93.0673 47.6865 90.456 45.0752 87.4096 44.2048C76.9645 40.7231 66.9547 47.2513 56.5096 45.9457C47.8054 44.64 39.9716 35.5006 44.3237 26.3612C44.4408 26.1074 44.5657 25.8533 44.6897 25.5995C43.831 26.3411 42.9819 27.0936 42.1455 27.8605C38.9423 30.7968 34.5306 34.1902 32.9403 38.3582C31.3035 42.6463 40.0486 43.4741 43.0503 45.8817C50.0502 51.4959 49.7556 57.4874 64.4696 55.6609C70.8137 54.8736 76.7708 51.2587 83.1436 51.7601C87.6964 52.1183 93.19 55.0625 97.2101 57.2294C103.617 60.6832 108.856 57.1284 115.263 60.5822C117.888 61.9971 117.842 68.403 121.689 72.6428C126.291 77.7143 116.493 86.2305 119.296 92.478C120.74 95.6959 124.521 97.2366 126.391 100.226C129.614 105.379 125.999 111.983 126.019 118.06C126.046 126.53 133.586 133.476 141.758 135.703C148.112 137.434 154.506 136.763 160.949 136.129C166.192 135.613 172.393 135.667 176.834 132.407C179.455 130.482 181.27 127.592 182.834 124.799C182.948 124.596 183.055 124.39 183.166 124.186C179.939 126.722 176.412 128.801 172.276 129.942C162.266 132.988 151.821 127.33 141.376 126.46Z" fill="#4F1B0D"/>
<path d="M15.0113 70.8157C14.3498 72.4151 13.9342 74.606 15.3638 75.5817C16.3152 76.2311 17.6704 75.9182 18.5578 75.184C19.4452 74.4498 19.981 73.3874 20.5276 72.3738C22.8451 68.077 25.791 64.1226 29.2331 60.661C31.6821 58.1981 38.7273 54.6481 39.5655 51.199C40.3532 47.958 36.1791 48.1252 33.9439 48.8681C30.0418 50.165 26.4417 54.0971 23.7486 57.0687C20.0854 61.1105 17.0973 65.7721 15.0113 70.8157Z" fill="#F3D4AA"/>
<path d="M106.874 6.99602C98.5874 6.70225 90.1273 7.74546 82.576 11.1701C81.2904 11.7529 79.8642 12.649 79.7811 14.0582C79.7001 15.4282 81.0462 16.5393 82.4058 16.7273C83.7654 16.9153 85.1176 16.4384 86.4215 16.0097C99.1101 11.8386 113.102 11.7346 125.851 15.7163C127.451 16.2164 129.087 16.7861 130.759 16.6612C132.432 16.5363 134.171 15.5009 134.518 13.8602C135.693 8.3034 110.629 7.1292 106.874 6.99602Z" fill="#844536"/>
<path d="M156.835 27.2507C157.237 28.1516 157.527 29.1434 157.376 30.1183C157.225 31.0932 156.543 32.0358 155.578 32.2413C154.682 32.4319 153.758 31.9619 153.118 31.3073C152.478 30.6527 152.05 29.8263 151.542 29.0638C149.786 26.4242 139.58 22.7149 144.537 19.7268C149.077 16.9906 155.184 23.5501 156.835 27.2507Z" fill="#844536"/>
<path d="M73.7744 21.5891C72.1458 20.8775 70.4972 22.1523 70.4807 22.1653C70.3083 22.3015 70.0768 22.3377 69.8714 22.2606C69.666 22.1836 69.5145 22.0056 69.4745 21.7897C69.471 21.7714 69.0536 19.729 67.3554 19.2063C67.076 19.1201 66.7727 19.0771 66.4476 19.0771C66.1538 19.0771 65.8422 19.1123 65.5154 19.1824C64.121 19.4818 63.4494 20.874 63.2858 22.0778C63.14 23.1519 63.3189 24.3283 63.8342 25.6749C63.9395 25.9512 64.0592 26.2354 64.1993 26.5444C64.5153 27.2386 64.8895 27.9758 65.3435 28.7979C65.7465 29.5286 66.1695 30.2528 66.6291 30.9992C67.4642 30.7337 68.2568 30.4609 69.0397 30.1701C69.921 29.8433 70.6857 29.5286 71.3777 29.2088C71.6845 29.0669 71.9604 28.9294 72.2215 28.7884C73.4906 28.1038 74.3941 27.3291 74.9843 26.4204C75.6458 25.4015 76.0457 23.9079 75.184 22.7716C74.7584 22.2097 74.284 21.8119 73.7744 21.5891Z" fill="#E895AF"/>
<path d="M102.977 31.1589C101.29 31.716 100.913 33.7654 100.909 33.7863C100.872 34.0026 100.723 34.1845 100.519 34.2637C100.314 34.3433 100.083 34.3116 99.9091 34.178C99.8944 34.1666 98.2205 32.9245 96.6068 33.6683C96.3413 33.7906 96.0867 33.9612 95.8443 34.178C95.6254 34.3738 95.4169 34.6079 95.2202 34.8786C94.3815 36.0324 94.8107 37.5173 95.4922 38.5227C96.1002 39.4201 97.0189 40.1765 98.301 40.8354C98.5639 40.9707 98.8429 41.103 99.1536 41.2393C99.8521 41.5452 100.623 41.8446 101.51 42.1541C102.298 42.4291 103.096 42.6863 103.937 42.9353C104.381 42.1802 104.79 41.4482 105.179 40.7087C105.617 39.877 105.976 39.1328 106.278 38.4326C106.412 38.1223 106.526 37.8355 106.626 37.5565C107.114 36.1999 107.27 35.0197 107.103 33.9495C106.916 32.7492 106.217 31.3704 104.817 31.0984C104.124 30.9644 103.505 30.9848 102.977 31.1589Z" fill="#E895AF"/>
<path d="M128.828 29.8237C128.972 28.0524 127.232 26.9061 127.215 26.8952C127.03 26.7764 126.92 26.5688 126.927 26.3494C126.933 26.1301 127.053 25.9295 127.244 25.8211C127.26 25.8115 129.056 24.7548 129.001 22.9787C128.992 22.6867 128.934 22.3855 128.828 22.0778C128.733 21.8002 128.599 21.5169 128.426 21.23C127.691 20.008 126.156 19.8243 124.965 20.0598C123.901 20.27 122.846 20.8209 121.74 21.7449C121.513 21.9342 121.282 22.1396 121.036 22.3725C120.482 22.896 119.905 23.4897 119.275 24.1856C118.714 24.804 118.166 25.4385 117.609 26.1157C118.131 26.8195 118.646 27.481 119.175 28.1273C119.77 28.8549 120.315 29.4764 120.842 30.0274C121.076 30.2716 121.296 30.4883 121.513 30.6894C122.572 31.6677 123.598 32.2713 124.649 32.5351C125.827 32.8306 127.37 32.7244 128.166 31.5411C128.559 30.9557 128.782 30.3782 128.828 29.8237Z" fill="#E895AF"/>
<path d="M168.797 48.7628C167.308 47.794 165.472 48.7819 165.454 48.7919C165.262 48.8977 165.027 48.896 164.837 48.7858C164.647 48.6762 164.527 48.476 164.523 48.2562C164.522 48.2375 164.445 46.1546 162.855 45.3603C162.594 45.2297 162.302 45.1375 161.981 45.0844C161.691 45.0361 161.378 45.02 161.044 45.0356C159.619 45.1027 158.729 46.3661 158.371 47.5268C158.051 48.5626 158.035 49.7524 158.322 51.1651C158.381 51.455 158.452 51.7553 158.54 52.083C158.738 52.8194 158.987 53.608 159.3 54.4936C159.578 55.2805 159.877 56.0639 160.208 56.876C161.075 56.7506 161.902 56.6118 162.722 56.453C163.644 56.275 164.45 56.09 165.186 55.8876C165.512 55.7975 165.807 55.7074 166.087 55.6113C167.451 55.1438 168.47 54.5276 169.2 53.7277C170.02 52.8311 170.659 51.4232 169.995 50.1607C169.666 49.5361 169.263 49.0657 168.797 48.7628Z" fill="#E895AF"/>
<path d="M137.981 47.1568C136.211 46.9975 135.05 48.7288 135.039 48.7462C134.918 48.9299 134.71 49.0378 134.491 49.0295C134.272 49.0217 134.072 48.9003 133.965 48.7088C133.956 48.6927 132.913 46.8874 131.137 46.9292C130.845 46.9362 130.544 46.9914 130.235 47.0942C129.957 47.1873 129.672 47.3192 129.384 47.4893C128.156 48.2148 127.96 49.7485 128.186 50.9414C128.387 52.0064 128.93 53.0657 129.845 54.1798C130.032 54.4087 130.236 54.6407 130.467 54.8892C130.986 55.4476 131.575 56.0286 132.266 56.6644C132.879 57.2302 133.51 57.7829 134.183 58.3457C134.891 57.8295 135.556 57.3199 136.207 56.7959C136.939 56.2066 137.565 55.6665 138.12 55.1438C138.366 54.9118 138.585 54.6938 138.787 54.4779C139.775 53.4269 140.386 52.4059 140.658 51.357C140.964 50.1811 140.87 48.6378 139.693 47.8327C139.11 47.4341 138.534 47.2064 137.981 47.1568Z" fill="#E895AF"/>
<path d="M177.011 81.7169C176.21 80.1306 174.127 80.0614 174.106 80.0609C173.887 80.0557 173.685 79.936 173.576 79.7458C173.467 79.5557 173.464 79.322 173.57 79.13C173.579 79.1135 174.56 77.2743 173.585 75.7885C173.425 75.5439 173.219 75.3176 172.968 75.11C172.742 74.9228 172.479 74.7514 172.182 74.5969C170.917 73.9384 169.512 74.5829 168.619 75.4059C167.822 76.1401 167.21 77.1611 166.748 78.5268C166.653 78.8071 166.564 79.1022 166.475 79.4294C166.276 80.1654 166.094 80.9723 165.92 81.8954C165.764 82.7153 165.629 83.5426 165.507 84.4109C166.319 84.7386 167.104 85.0341 167.893 85.3091C168.78 85.619 169.569 85.8645 170.307 86.0595C170.634 86.1456 170.934 86.2157 171.225 86.2736C172.639 86.5552 173.829 86.5347 174.863 86.2109C176.022 85.8479 177.282 84.9523 177.344 83.5274C177.373 82.8224 177.261 82.2131 177.011 81.7169Z" fill="#E895AF"/>
<path d="M141.977 87.5205C143.64 88.1472 145.22 86.7893 145.236 86.7754C145.401 86.6304 145.631 86.5826 145.84 86.6492C146.049 86.7158 146.21 86.8855 146.261 87.0987C146.266 87.117 146.787 89.1351 148.51 89.5699C148.793 89.6417 149.099 89.6687 149.424 89.6521C149.717 89.6369 150.026 89.586 150.349 89.4989C151.727 89.1281 152.326 87.7032 152.427 86.4929C152.517 85.4127 152.278 84.2468 151.694 82.9285C151.575 82.6578 151.441 82.3802 151.285 82.079C150.934 81.4023 150.522 80.685 150.026 79.8873C149.586 79.1783 149.127 78.4768 148.629 77.7548C147.809 78.0629 147.032 78.3758 146.264 78.707C145.401 79.0787 144.654 79.4321 143.979 79.7872C143.68 79.9447 143.411 80.0966 143.157 80.2503C141.925 80.9993 141.063 81.8192 140.52 82.7571C139.912 83.8085 139.59 85.3205 140.508 86.4115C140.962 86.9512 141.456 87.3242 141.977 87.5205Z" fill="#E895AF"/>
<path d="M179.274 104.182C177.523 104.488 176.853 106.461 176.846 106.481C176.777 106.689 176.605 106.848 176.391 106.897C176.177 106.946 175.952 106.881 175.799 106.724C175.786 106.71 174.311 105.238 172.606 105.74C172.326 105.822 172.049 105.954 171.778 106.134C171.533 106.296 171.292 106.497 171.059 106.737C170.062 107.756 170.271 109.288 170.799 110.382C171.27 111.358 172.07 112.24 173.243 113.078C173.483 113.25 173.74 113.421 174.027 113.601C174.674 114.005 175.393 114.413 176.226 114.848C176.965 115.234 177.718 115.605 178.513 115.973C179.063 115.291 179.573 114.626 180.065 113.951C180.619 113.192 181.083 112.507 181.484 111.858C181.661 111.571 181.815 111.303 181.955 111.042C182.635 109.77 182.96 108.626 182.95 107.542C182.94 106.327 182.448 104.861 181.102 104.389C180.437 104.156 179.822 104.086 179.274 104.182Z" fill="#E895AF"/>
<path d="M155.195 118.761C153.942 117.501 151.94 118.081 151.92 118.087C151.71 118.15 151.481 118.099 151.318 117.952C151.156 117.805 151.08 117.584 151.122 117.368C151.126 117.35 151.488 115.297 150.101 114.187C149.873 114.004 149.606 113.853 149.304 113.733C149.031 113.625 148.728 113.543 148.398 113.488C146.991 113.254 145.854 114.303 145.26 115.362C144.73 116.307 144.464 117.467 144.448 118.909C144.445 119.205 144.451 119.513 144.468 119.852C144.507 120.614 144.584 121.437 144.704 122.368C144.81 123.196 144.938 124.025 145.091 124.888C145.965 124.948 146.803 124.986 147.638 125.003C148.577 125.023 149.404 125.011 150.166 124.968C150.503 124.949 150.811 124.923 151.105 124.887C152.537 124.717 153.662 124.328 154.544 123.7C155.534 122.996 156.454 121.753 156.071 120.38C155.882 119.7 155.587 119.156 155.195 118.761Z" fill="#E895AF"/>
<path d="M142.719 34.9161C141.326 34.2615 139.447 35.4788 139.475 37.0177C139.503 38.5566 141.426 39.7047 142.794 38.9997C144.161 38.2946 144.342 36.0629 143.105 35.1468L142.719 34.9161Z" fill="#19A9A9"/>
<path d="M158.414 107.999C157.021 107.345 155.141 108.562 155.17 110.101C155.198 111.64 157.12 112.788 158.488 112.083C159.856 111.378 160.037 109.146 158.8 108.23L158.414 107.999Z" fill="#19A9A9"/>
<path d="M147.741 49.873C146.313 50.2072 145.678 52.2788 146.673 53.356C147.668 54.4331 149.783 53.964 150.229 52.5674C150.675 51.1708 149.224 49.5618 147.789 49.8625L147.741 49.873Z" fill="#F4D645"/>
<path d="M142.682 67.801C141.254 68.1353 140.619 70.2069 141.614 71.284C142.608 72.3612 144.724 71.892 145.17 70.4954C145.616 69.0988 144.165 67.4899 142.73 67.7906L142.682 67.801Z" fill="#F4D645"/>
<path d="M51.223 34.9087C49.7546 35.1398 48.9586 37.1875 49.8848 38.3495C50.8113 39.5115 52.9852 39.1916 53.5375 37.8116C54.0898 36.4315 52.7371 34.7002 51.2644 34.9022L51.223 34.9087Z" fill="#D45E7E"/>
<path d="M155.856 68.0561C157.062 66.9972 159.315 67.761 159.628 69.3356C159.942 70.9102 158.154 72.4787 156.633 71.963C155.113 71.4473 154.648 69.115 155.856 68.0561Z" fill="#19A9A9"/>
<path d="M70.1424 35.2151C71.3493 34.1562 73.6015 34.92 73.9148 36.4946C74.2286 38.0692 72.4408 39.6377 70.9201 39.122C69.4 38.6062 68.9352 36.2739 70.1424 35.2151Z" fill="#F4D645"/>
<path d="M142.374 97.7841C143.58 96.7252 145.833 97.489 146.146 99.0636C146.46 100.638 144.672 102.207 143.151 101.691C141.631 101.175 141.167 98.8429 142.374 97.7841Z" fill="#D45E7E"/>
<path d="M174.738 63.8741C173.292 63.9016 172.236 65.7451 172.945 67.0059C173.653 68.2667 175.776 68.3246 176.552 67.1043C177.327 65.8839 176.374 63.986 174.932 63.8798L174.738 63.8741Z" fill="#D45E7E"/>
<path d="M176.793 92.0566C175.347 92.0841 174.292 93.9276 175 95.1884C175.708 96.4492 177.831 96.5071 178.607 95.2868C179.383 94.0664 178.429 92.1685 176.987 92.0623L176.793 92.0566Z" fill="#19A9A9"/>
<path d="M118.318 42.7386C119.881 42.3177 121.604 43.9189 121.299 45.5087C120.994 47.0985 118.801 47.9485 117.504 46.9793C116.207 46.01 116.402 43.6656 117.841 42.9231L118.318 42.7386Z" fill="#D45E7E"/>
<path d="M160.626 93.8771C162.189 93.4563 163.913 95.0574 163.607 96.6473C163.302 98.2371 161.109 99.0871 159.812 98.1178C158.516 97.1486 158.71 94.8041 160.149 94.0617L160.626 93.8771Z" fill="#D45E7E"/>
<path d="M88.4109 24.031C89.9742 23.6102 91.6976 25.2113 91.3925 26.8012C91.0875 28.391 88.8944 29.241 87.5975 28.2717C86.301 27.3025 86.4951 24.958 87.9339 24.2156L88.4109 24.031Z" fill="#D45E7E"/>
<path d="M164.707 122.554C163.064 122.865 162.143 125.082 163.081 126.466C164.02 127.85 166.421 127.813 167.317 126.402C168.213 124.99 167.225 122.802 165.574 122.541L164.707 122.554Z" fill="#F4D645"/>
</svg>
