<svg width="154" height="174" viewBox="0 0 154 174" fill="none" xmlns="http://www.w3.org/2000/svg">
<path d="M153.074 114.626C152.816 115.379 152.51 116.126 152.16 116.857C151.063 119.17 149.548 121.357 147.824 123.264C147.488 123.641 147.137 124.006 146.783 124.361C146.652 124.491 146.522 124.622 146.387 124.749C145.324 125.767 144.212 126.73 143.059 127.633C143.037 127.652 143.011 127.67 142.988 127.689C142.596 127.995 142.197 128.297 141.794 128.588C138.559 130.954 135.033 132.898 131.332 134.525C130.876 134.726 130.417 134.92 129.955 135.11C128.209 135.834 126.425 136.491 124.615 137.092C124.615 137.092 124.615 137.092 124.612 137.092C123.97 137.304 123.324 137.51 122.675 137.707C119.765 138.603 116.806 139.36 113.839 140.021C113.321 140.137 112.802 140.248 112.283 140.36C111.545 140.517 110.806 140.67 110.071 140.816C95.224 143.771 79.7466 145.114 64.8364 143.047C58.8925 142.226 53.0418 140.86 47.3553 138.838C8.42682 125.006 -10.3005 77.0965 10.9231 40.8993C18.949 27.2129 31.5906 16.5899 45.9673 9.77289C46.4337 9.54901 46.9038 9.3326 47.3777 9.11618C49.3739 8.20948 51.4 7.37741 53.4522 6.61996C54.7171 6.15354 55.9895 5.71325 57.2693 5.30281C57.7619 5.13863 58.2544 4.98192 58.7507 4.83267C61.6349 3.94835 64.5528 3.19463 67.5005 2.56778C67.9968 2.45957 68.493 2.35883 68.9893 2.26181C71.4893 1.76182 74.0079 1.35138 76.5377 1.02676C77.0377 0.959595 77.534 0.899895 78.0339 0.840194C80.4257 0.560348 82.8324 0.355127 85.2391 0.217069C85.7465 0.187219 86.2577 0.1611 86.7651 0.138712C90.6606 -0.0403893 94.5673 -0.0441206 98.4665 0.116325C98.9627 0.134981 99.459 0.157369 99.959 0.187219C102.313 0.302889 104.664 0.478259 107.007 0.71333C107.463 0.754374 107.918 0.802881 108.369 0.851388C108.418 0.855119 108.463 0.862582 108.511 0.866313C110.724 1.10885 113.015 1.45586 115.216 2.02674C115.705 2.14988 116.19 2.2842 116.664 2.42972C118.832 3.09762 120.869 4.00805 122.612 5.27296C123.056 5.59012 123.481 5.9334 123.88 6.3028C124.768 7.11622 125.548 8.04531 126.19 9.11618C126.227 9.17962 126.265 9.23932 126.302 9.30275C129.88 15.5116 127.257 23.4742 123.798 29.7875C123.145 30.9778 122.466 32.1531 121.757 33.3136C121.395 33.9106 121.022 34.5076 120.638 35.0971C119.724 36.5262 118.765 37.9254 117.761 39.2985C117.466 39.7127 117.16 40.1232 116.854 40.5299C115.265 42.6343 113.582 44.6679 111.813 46.6268C111.474 47.0037 111.13 47.3805 110.783 47.7499C108.895 49.7685 106.914 51.7013 104.847 53.5334C104.47 53.8692 104.093 54.1976 103.713 54.5259C102.701 55.3916 101.672 56.2348 100.623 57.052C100.231 57.3617 99.8321 57.6677 99.4329 57.9699C99.2911 58.0781 99.1456 58.1863 99 58.2945C98.418 58.7273 97.8321 59.1564 97.2389 59.5744C92.2688 63.0892 86.2129 67.5369 87.0935 73.5629C87.9368 79.3315 94.5673 82.0031 100.183 83.5777C102.642 84.268 105.104 84.9583 107.563 85.6486C108.041 85.7829 108.515 85.9172 108.992 86.0478C109.522 86.1971 110.056 86.3463 110.586 86.4956C111.38 86.7195 112.171 86.9433 112.966 87.1635C113.5 87.3127 114.03 87.462 114.563 87.6112C115.795 87.9582 117.026 88.3015 118.261 88.6485C118.795 88.7978 119.332 88.9508 119.869 89.0963C121.276 89.4955 122.686 89.891 124.097 90.2828C124.612 90.4284 125.126 90.5739 125.641 90.7157C127.653 91.2828 129.667 91.8462 131.682 92.4134H131.686C132.626 92.6746 133.563 92.9395 134.503 93.2044C135.044 93.3537 135.589 93.5067 136.13 93.6596C137.201 93.9581 138.29 94.2753 139.38 94.6223C139.951 94.8051 140.526 94.9954 141.093 95.1969C142.014 95.5253 142.928 95.8798 143.816 96.2715H143.82C144.399 96.5215 144.966 96.7902 145.518 97.0812C148.652 98.7006 151.324 100.88 152.824 104.048C154.421 107.417 154.279 111.107 153.074 114.626Z" fill="#F3C484"/>
<path d="M142.988 127.689C136.1 133.066 127.779 136.402 119.182 138.711C116.164 139.525 113.108 140.211 110.071 140.816C103.194 142.185 96.1791 143.207 89.1456 143.704C81.004 144.282 72.8399 144.155 64.8363 143.047C66.937 141.461 72.0862 138.349 81.9069 136.521C84.0412 136.125 86.5188 135.86 89.2949 135.648C97.1642 135.043 107.41 134.857 118.955 133.234C126.514 132.174 134.626 130.499 142.988 127.689Z" fill="#D8A160"/>
<path d="M121.876 173.129C117.563 172.964 89.3695 173.129 89.3695 173.129C88.8546 169.013 88.9778 154.282 89.1457 143.704C89.1979 140.502 89.2539 137.678 89.2949 135.648C97.1642 135.043 107.41 134.857 118.955 133.234C118.988 134.775 119.071 136.64 119.183 138.711C119.895 151.797 121.876 173.129 121.876 173.129Z" fill="#EDEBE6"/>
<path d="M118.955 133.234C107.41 134.857 97.1642 135.043 89.2949 135.648C89.2755 136.616 89.2524 137.77 89.2281 139.055C99.019 136.844 109.418 138.714 119.039 135.764C119 134.85 118.972 134.001 118.955 133.234Z" fill="#DED9CE"/>
<path d="M107.563 85.6486C101.186 85.8612 94.7761 85.6747 88.6531 83.9583C81.2204 81.8688 74.1682 77.1935 70.9407 70.1787C69.9929 68.119 69.6049 65.2384 71.4854 63.9698C72.2615 63.4437 73.2429 63.3504 74.1794 63.2646C81.78 62.5631 89.3135 61.1303 96.6455 59.0035C97.4328 58.7758 98.2201 58.537 98.9999 58.2945C98.4179 58.7273 97.832 59.1564 97.2388 59.5743C92.2687 63.0892 86.2128 67.5369 87.0934 73.5629C87.9367 79.3315 94.5672 82.0031 100.183 83.5777C102.642 84.268 105.104 84.9583 107.563 85.6486Z" fill="#EDB972"/>
<path d="M32.5566 41.2735C33.3212 46.3324 36.9405 50.4491 38.8256 55.2054C42.249 63.8444 39.7435 73.9611 43.1352 82.6128C45.3594 88.2866 49.9814 92.9179 51.4142 98.8409C52.3153 102.565 51.8865 106.583 53.2824 110.152C54.6436 113.631 57.5712 116.251 59.3823 119.519C62.6125 125.348 61.9323 132.34 60.6252 139.002C60.2118 141.109 58.3316 142.639 56.1861 142.563C51.6018 142.401 47.0486 140.73 42.6971 139.082C35.4163 136.324 27.9862 133.479 22.0094 128.489C16.5143 123.902 12.5502 117.734 9.37192 111.32C0.738095 93.9007 -2.58163 73.5103 2.18285 54.6617C5.07982 43.2011 11.1118 32.4908 19.5229 24.1715C23.7172 20.0227 28.5145 16.4739 33.7697 13.7833C35.8331 12.7266 39.1069 10.802 39.4953 14.2765C39.7976 16.9787 38.714 19.9932 37.7748 22.4719C35.5084 28.4536 31.5488 34.6057 32.5566 41.2735Z" fill="#E895AF"/>
<path d="M59.382 119.519C57.5708 116.252 54.6433 113.631 53.2821 110.152C51.8858 106.583 52.3149 102.565 51.4138 98.8409C49.981 92.9175 45.3587 88.2866 43.1349 82.6128C39.7435 73.9611 42.2487 63.8444 38.8252 55.2054C36.9402 50.4487 33.3208 46.3324 32.5563 41.2735C31.5489 34.6053 35.5081 28.4532 37.7745 22.4719C38.7137 19.9932 39.7972 16.9787 39.495 14.2765C39.1928 11.5751 37.1473 12.1374 35.2816 13.018C38.0182 21.4805 29.4481 30.3326 26.8926 38.6381C23.9076 47.9663 32.1164 54.6826 34.7283 62.5183C38.0864 74.0853 35.7824 84.7046 43.2449 96.2715C45.9669 98.861 44.0565 103.562 45.1759 106.548C46.6408 116.857 56.4526 127.89 49.7362 131.622C40.642 136.609 26.815 129.152 18.5763 125.218C19.6517 126.375 20.7904 127.473 22.0083 128.49C27.9851 133.48 35.4156 136.324 42.6961 139.082C47.0475 140.731 51.6008 142.402 56.185 142.564C58.3309 142.639 60.2107 141.11 60.6241 139.003C61.932 132.34 62.6122 125.348 59.382 119.519Z" fill="#DD7FA0"/>
<path d="M8.6312 48.101C5.96967 53.4916 3.94881 59.4542 4.61373 65.4287C4.73387 66.5086 5.09618 67.7675 6.12788 68.1082C6.96444 68.3843 7.89688 67.8783 8.39986 67.1552C8.90284 66.4321 9.07746 65.5384 9.25432 64.6754C11.0401 55.9692 14.2531 47.5578 18.7273 39.8784C19.3885 38.7437 20.0896 37.5915 20.3165 36.2982C20.5512 34.9606 20.1053 32.5841 18.4796 33.1348C17.2691 33.5449 15.5404 36.8042 14.7916 37.8463C12.4621 41.0885 10.3987 44.5216 8.6312 48.101Z" fill="#EFB6CA"/>
<path d="M117.944 18.5899C117.865 19.6533 117.653 21.2093 116.731 22.4667C115.947 23.5376 114.724 24.1682 113.552 24.1682C113.265 24.1682 112.977 24.1309 112.701 24.0525C110.712 23.4779 109.963 21.2578 109.571 19.6384C108.074 13.437 107.213 7.09011 107.007 0.713341C107.463 0.754385 107.918 0.802892 108.369 0.851398C108.418 0.85513 108.463 0.862592 108.511 0.866323C108.724 7.07145 109.567 13.2505 111.022 19.2877C111.324 20.5451 111.873 22.2615 113.115 22.616C114.011 22.8734 115.007 22.2951 115.526 21.5861C116.056 20.8623 116.35 19.8735 116.455 18.4817C116.645 15.9444 116.227 13.4557 115.787 10.8214C115.559 9.45947 115.324 8.05278 115.183 6.65355C115.059 5.42222 114.996 3.77299 115.216 2.02675C115.705 2.14989 116.19 2.28421 116.664 2.42973C116.496 3.95956 116.559 5.41476 116.668 6.50429C116.806 7.85502 117.037 9.23559 117.261 10.5751C117.697 13.1796 118.149 15.8773 117.944 18.5899Z" fill="#E895AF"/>
<path d="M117.761 39.2985C117.466 39.7127 117.16 40.1231 116.854 40.5299C115.709 39.1829 114.347 37.9627 113.03 36.7874C112.362 36.1904 111.675 35.5747 111.015 34.9404C101.78 26.1122 97.0709 12.7989 98.4664 0.11631C98.9627 0.134967 99.4589 0.157354 99.9589 0.187205C98.5783 12.4407 103.119 25.3286 112.045 33.8621C112.686 34.4777 113.365 35.0859 114.026 35.6755C115.294 36.8135 116.604 37.9814 117.761 39.2985Z" fill="#E895AF"/>
<path d="M111.813 46.6268C111.474 47.0037 111.13 47.3805 110.783 47.7499C107.298 45.6268 103.843 43.3619 100.701 40.7052C95.7239 36.4889 92.2538 31.8584 90.3957 26.9331C88.9031 22.9816 88.4143 18.7429 87.9367 14.6459C87.7912 13.3885 87.642 12.09 87.4666 10.8251C86.9666 7.24681 86.2203 3.69836 85.239 0.217067C85.7465 0.187217 86.2577 0.161098 86.7651 0.13871C87.7203 3.57896 88.4479 7.08263 88.9442 10.6162C89.1233 11.8997 89.2763 13.2094 89.4218 14.4743C89.8845 18.4817 90.3658 22.6272 91.7911 26.407C93.5598 31.0897 96.8844 35.515 101.668 39.5635C104.806 42.2201 108.295 44.4925 111.813 46.6268Z" fill="#EDEBE6"/>
<path d="M104.847 53.5334C104.47 53.8692 104.093 54.1976 103.713 54.5259C101.261 52.3058 98.556 50.317 95.9068 48.3656C95.2986 47.9215 94.6942 47.4738 94.0934 47.0298C88.5823 42.9291 83.1085 38.2762 80.3847 32.03C77.9967 26.5562 77.937 20.4667 77.881 14.5788L77.8698 13.5191C77.825 9.33259 77.6571 5.0043 76.5377 1.02675C77.0377 0.959588 77.534 0.899888 78.034 0.840187C79.1459 4.91475 79.3175 9.28035 79.3623 13.5004L79.3735 14.5639C79.4295 20.3026 79.4854 26.239 81.7541 31.433C84.4667 37.653 90.0077 42.1269 94.9852 45.832C95.5859 46.2761 96.1867 46.7201 96.7911 47.1641C99.5262 49.1753 102.31 51.2275 104.847 53.5334Z" fill="#E895AF"/>
<path d="M123.641 14.0676C123.824 16.4743 124.014 18.9631 123.57 21.4183C123.347 22.6458 122.973 23.8361 122.608 24.9891C122.201 26.2727 121.82 27.4853 121.63 28.7465C121.403 30.2838 121.47 31.8024 121.757 33.3136C121.395 33.9106 121.022 34.5076 120.638 35.0971C120.044 32.9516 119.821 30.7689 120.156 28.5264C120.362 27.1458 120.779 25.8212 121.186 24.5376C121.552 23.3809 121.895 22.2876 122.1 21.1533C122.511 18.8884 122.335 16.6012 122.153 14.1796C122.074 13.1348 121.992 12.0527 121.962 10.9856C121.903 8.81397 122.119 6.90728 122.612 5.27298C123.056 5.59014 123.481 5.93342 123.88 6.30281C123.548 7.64608 123.406 9.19829 123.455 10.9445C123.485 11.9781 123.563 13.0378 123.641 14.0676Z" fill="#EDEBE6"/>
<path d="M100.623 57.052C100.231 57.3617 99.8322 57.6677 99.4329 57.9699C98.6008 57.1229 97.724 56.3953 96.8061 55.7946C94.321 54.164 91.3509 53.2872 88.4778 52.4402C87.448 52.1379 86.3846 51.8245 85.351 51.4812C76.7989 48.6268 70.2729 43.2425 67.4409 36.7053C64.7916 30.5786 65.2357 23.6682 66.1163 17.1161C66.2282 16.2765 66.3476 15.4333 66.4633 14.59C67.023 10.6274 67.5976 6.56773 67.5006 2.56779C67.9968 2.45958 68.4931 2.35884 68.9893 2.26183C69.1199 6.45952 68.5267 10.6796 67.9446 14.7989C67.8252 15.6385 67.7058 16.478 67.5938 17.3138C66.7431 23.6533 66.3028 30.3211 68.8102 36.112C71.4744 42.2575 77.6758 47.3432 85.8212 50.0633C86.8323 50.3991 87.8808 50.7088 88.8995 51.0111C91.877 51.8879 94.9554 52.7946 97.627 54.5483C98.6792 55.2386 99.6829 56.0744 100.623 57.052Z" fill="#EDEBE6"/>
<path d="M62.2357 35.8993C62.1163 38.1493 61.2693 39.6232 59.8402 40.056C59.5865 40.1343 59.3327 40.1679 59.079 40.1679C58.0492 40.1679 57.0828 39.5821 56.4932 38.8844C55.7768 38.0374 55.441 36.9963 55.1574 36.0001C54.4448 33.5001 53.9112 30.9218 53.3963 28.4293C52.8403 25.7428 52.2657 22.9667 51.4709 20.3138C50.1463 15.9071 48.3031 12.3773 45.9673 9.77288C46.4337 9.549 46.9038 9.33259 47.3777 9.11617C49.721 11.8475 51.5717 15.4519 52.9 19.8847C53.7134 22.601 54.2955 25.4107 54.8552 28.1271C55.3664 30.5935 55.8962 33.1419 56.594 35.5934C56.8402 36.4628 57.1089 37.2986 57.635 37.9217C58.038 38.3993 58.7619 38.8209 59.4111 38.6269C60.5006 38.2986 60.7059 36.556 60.7432 35.821C60.9148 32.5412 60.2245 29.2054 59.5566 25.9779C58.9148 22.8921 58.2544 19.6981 58.3066 16.4705C58.3253 15.5041 58.4037 14.5303 58.482 13.59C58.635 11.7803 58.7768 10.0714 58.5007 8.38111C58.329 7.31396 57.9037 6.21323 57.2693 5.3028C57.7619 5.13862 58.2544 4.98191 58.7507 4.83266C59.3813 5.86249 59.7954 7.03038 59.9745 8.14231C60.2768 10.0117 60.12 11.896 59.9708 13.7131C59.8962 14.631 59.8141 15.5788 59.7992 16.4967C59.7469 19.5563 60.3924 22.6682 61.0156 25.6756C61.7058 28.9927 62.4148 32.4255 62.2357 35.8993Z" fill="#E895AF"/>
<path d="M153.074 114.626C152.816 115.379 152.51 116.126 152.16 116.857C151.719 115.2 151.193 113.574 150.54 111.991C149.787 110.163 148.85 108.365 147.947 106.626C147.063 104.924 146.149 103.171 145.391 101.361C144.645 99.5887 144.122 97.8872 143.82 96.2715C144.399 96.5215 144.966 96.7902 145.518 97.0812C145.809 98.2678 146.227 99.5028 146.764 100.783C147.503 102.536 148.402 104.264 149.272 105.936C150.189 107.704 151.141 109.533 151.921 111.421C152.357 112.477 152.738 113.547 153.074 114.626Z" fill="#E895AF"/>
<path d="M144.078 112.506C143.783 112.727 143.436 112.835 143.052 112.835C142.622 112.835 142.152 112.7 141.66 112.424C139.149 111.033 137.507 108.204 136.645 103.783C136.54 103.257 136.447 102.727 136.354 102.197C135.895 99.6222 135.421 96.9581 133.947 94.9022C133.432 94.182 132.805 93.5477 132.141 92.8761C131.992 92.7231 131.839 92.5701 131.686 92.4134C132.626 92.6746 133.563 92.9395 134.503 93.2044C134.734 93.4693 134.955 93.7455 135.16 94.0328C136.831 96.3648 137.335 99.1969 137.82 101.936C137.914 102.458 138.007 102.98 138.108 103.495C138.884 107.462 140.279 109.954 142.384 111.118C142.779 111.342 143.089 111.383 143.19 111.309C143.238 111.271 143.384 111.092 143.212 110.268C142.119 105.036 140.835 99.7939 139.38 94.6223C139.951 94.8051 140.525 94.9954 141.093 95.1969C142.443 100.085 143.641 105.029 144.675 109.962C144.768 110.413 145.055 111.786 144.078 112.506Z" fill="#EDEBE6"/>
<path d="M147.824 123.264C147.488 123.641 147.137 124.006 146.783 124.361C145.428 123.439 143.958 122.611 142.54 121.805C140.701 120.764 138.798 119.689 137.067 118.379C132.611 115.018 129.093 109.965 126.891 103.775C125.5 99.8685 124.608 95.6036 124.097 90.2828C124.612 90.4284 125.127 90.5739 125.641 90.7157C126.149 95.641 126.996 99.6297 128.294 103.275C130.403 109.189 133.746 114.003 137.966 117.189C139.619 118.439 141.477 119.491 143.275 120.506C144.787 121.361 146.346 122.245 147.813 123.256C147.816 123.26 147.82 123.26 147.824 123.264Z" fill="#E895AF"/>
<path d="M143.059 127.633C143.037 127.652 143.011 127.67 142.988 127.689C142.596 127.995 142.197 128.297 141.794 128.588C141.772 128.577 141.753 128.562 141.731 128.551C140.399 127.79 138.873 127.465 137.261 127.118C136.667 126.991 136.055 126.861 135.455 126.708C127.033 124.543 120.175 117.036 118.776 108.454C118.254 105.26 118.433 102.007 118.604 98.8611C118.657 97.8685 118.712 96.8424 118.746 95.8387C118.813 93.6708 118.787 91.1336 118.261 88.6485C118.795 88.7978 119.332 88.9508 119.869 89.0963C120.287 91.4731 120.306 93.8387 120.239 95.8872C120.205 96.9059 120.149 97.9394 120.093 98.9431C119.925 102.01 119.753 105.182 120.25 108.215C121.556 116.23 127.962 123.241 135.828 125.26C136.399 125.405 136.996 125.536 137.57 125.659C139.227 126.014 140.936 126.379 142.473 127.256C142.671 127.368 142.869 127.495 143.059 127.633Z" fill="#EDEBE6"/>
<path d="M129.865 131.293C129.35 131.409 128.839 131.517 128.328 131.622C127.615 130.431 126.809 129.357 126.037 128.439C124.858 127.032 123.537 125.689 122.257 124.39C120.395 122.499 118.47 120.54 116.891 118.316C113.739 113.868 112.052 108.421 112.142 102.969C112.179 100.924 112.455 98.8685 112.727 96.8797C113.186 93.5066 113.615 90.3164 112.966 87.1635C113.5 87.3127 114.03 87.462 114.563 87.6112C115.059 90.7716 114.627 93.9768 114.205 97.0812C113.94 99.0252 113.668 101.04 113.634 102.992C113.548 108.13 115.138 113.264 118.112 117.454C119.619 119.577 121.503 121.491 123.324 123.346C124.619 124.663 125.962 126.029 127.182 127.476C128.093 128.558 129.044 129.849 129.865 131.293Z" fill="#E895AF"/>
<path d="M119.272 133.189C119.164 133.204 119.059 133.219 118.955 133.234C118.448 133.305 117.94 133.375 117.44 133.439C115.339 131.163 113.679 128.487 112.638 125.577C111.895 123.51 111.444 121.316 111.004 119.193C110.246 115.532 109.533 112.074 107.47 109.223C106.892 108.424 106.358 108.003 105.836 107.943C105.28 107.872 104.619 108.26 104.231 108.88C103.813 109.551 103.675 110.409 103.586 111.234C103.086 116.006 104.022 121.23 106.381 126.756C107.478 129.331 108.81 131.819 110.239 134.241C109.686 134.293 109.138 134.342 108.593 134.387C107.272 132.111 106.041 129.771 105.007 127.342C102.549 121.577 101.575 116.107 102.101 111.077C102.209 110.074 102.388 109.018 102.966 108.089C103.672 106.962 104.866 106.324 106.015 106.458C106.97 106.574 107.843 107.189 108.679 108.35C110.929 111.458 111.713 115.238 112.466 118.891C112.895 120.961 113.336 123.103 114.041 125.077C115.134 128.126 116.959 130.905 119.272 133.189Z" fill="#EDEBE6"/>
<path d="M107.996 96.6857C106.914 98.4655 105.623 100.122 104.373 101.723C103.011 103.473 101.601 105.283 100.496 107.215C97.8209 111.891 96.6754 117.857 97.2687 124.01C97.612 127.543 98.4888 131.174 99.9291 134.999C99.403 135.028 98.8806 135.058 98.3694 135.088C96.9777 131.297 96.1269 127.681 95.7836 124.152C95.1605 117.697 96.3732 111.417 99.1978 106.477C100.358 104.45 101.802 102.596 103.198 100.805C104.418 99.2379 105.683 97.6148 106.724 95.9096C107.787 94.1708 109.899 90.0477 108.992 86.0478C109.522 86.197 110.056 86.3463 110.586 86.4955C111.03 89.5962 110.145 93.1671 107.996 96.6857Z" fill="#EDEBE6"/>
<path d="M94.4889 135.308C93.9143 135.342 93.3509 135.375 92.7949 135.409C90.5748 131.685 89.5785 127.577 89.1457 124.316C88.4965 119.469 88.7502 114.525 88.9927 109.741C89.0487 108.644 89.1046 107.547 89.1494 106.45C89.1979 105.215 88.9479 103.723 88.0674 103.6C87.2166 103.477 86.4816 104.76 86.198 105.316C82.0824 113.469 81.3287 123.133 84.1271 131.827C84.2988 132.361 84.4853 132.898 84.6719 133.435C84.9629 134.282 85.2577 135.137 85.5114 136.002C84.9928 136.058 84.4928 136.118 84.004 136.185C83.7801 135.428 83.5189 134.67 83.2615 133.924C83.0712 133.375 82.8809 132.827 82.7055 132.282C79.7876 123.219 80.5749 113.144 84.8659 104.641C86.0375 102.32 87.3696 101.988 88.28 102.122C89.8621 102.35 90.7427 103.992 90.6382 106.514C90.5934 107.615 90.5375 108.715 90.4815 109.816C90.2427 114.532 89.9964 119.409 90.6233 124.118C91.0673 127.417 92.1046 131.629 94.4889 135.308Z" fill="#E895AF"/>
</svg>
