<svg width="207" height="188" viewBox="0 0 207 188" fill="none" xmlns="http://www.w3.org/2000/svg">
<g clip-path="url(#clip0_118_3)">
<path d="M32.0719 50.9269C43.7247 47.0046 54.503 59.2127 63.8173 70.2118C71.3462 79.1014 77.9195 87.206 83.2305 85.3773C89.8004 83.1109 93.6291 70.9518 98.1097 57.9803C102.872 44.1728 108.363 29.442 118.668 24.764C118.857 24.6777 119.051 24.5936 119.243 24.5147C138.698 16.5285 169.34 60.1829 167.91 86.5445C167.778 88.9666 167.555 91.382 167.249 93.7747C164.25 117.323 153.118 138.855 138.983 148.808C123.412 159.773 86.3346 181.209 46.5658 149.108C6.80236 117.009 10.9979 58.0136 32.0719 50.9269Z" fill="#F3C484"/>
<path d="M118.668 24.764C118.857 24.6777 119.051 24.5936 119.243 24.5147C125.082 22.1179 131.928 24.3728 138.614 29.4176C145.992 34.982 153.171 43.9406 158.579 53.793C164.606 64.7576 168.438 76.8254 167.91 86.5445C167.778 88.9666 167.555 91.382 167.249 93.7747C164.891 85.6092 160.762 74.7791 154.037 66.7236C153.856 66.5079 153.677 66.296 153.496 66.0803C146.136 57.4292 138.353 51.4157 130.827 42.6831C126.66 37.8477 122.565 32.179 118.668 24.764Z" fill="#D8A160"/>
<path d="M63.8173 70.2118C71.3463 79.1014 77.9195 87.206 83.2306 85.3773C89.8005 83.1109 93.6292 70.9518 98.1097 57.9803C100.97 70.1879 104.511 94.3111 89.2538 98.7861C77.1958 102.321 68.6821 84.742 63.8173 70.2118Z" fill="#EDB972"/>
<path d="M130.827 42.6831C133.063 38.2725 135.842 33.6703 138.614 29.4176C144.814 19.8961 150.981 12.1058 150.981 12.1058C157.539 19.83 169.123 33.9788 169.123 33.9788C164.468 41.939 161.063 48.5075 158.579 53.793C156.042 59.1878 154.465 63.2442 153.496 66.0803C146.135 57.4292 138.353 51.4157 130.827 42.6831Z" fill="#EDEBE6"/>
<path d="M153.496 66.0803C153.796 65.2033 154.154 64.2089 154.58 63.0952C147.078 54.627 138.983 46.5656 134.271 36.4186C133.042 38.5119 131.874 40.6182 130.827 42.6831C138.353 51.4157 146.135 57.4292 153.496 66.0803Z" fill="#DED9CE"/>
<path d="M155.405 101.253C155.48 100.031 155.498 98.7642 155.026 97.6355C154.555 96.5068 153.472 95.549 152.248 95.5889C150.073 95.6595 149.202 98.3627 148.752 100.49C147.336 107.181 144.331 113.533 140.055 118.876C135.649 124.381 129.866 128.916 126.786 135.257C125.796 137.294 125.2 139.963 126.716 141.644C127.764 142.805 129.538 143.068 131.06 142.7C138.483 140.907 144.268 130.785 147.837 124.66C152.001 117.513 154.889 109.549 155.405 101.253Z" fill="#F3D4AA"/>
<path d="M60.217 142.371C59.092 141.688 57.4463 141.19 56.6138 142.211C56.0132 142.948 56.25 144.039 56.5879 144.927C57.1569 146.422 57.9277 147.84 58.8733 149.131C59.911 150.548 61.2379 151.859 62.9267 152.343C65.6769 153.132 67.978 151.544 66.9863 148.961C65.9729 146.321 62.5317 143.777 60.217 142.371Z" fill="#F3D4AA"/>
<path d="M50.8851 126.087C49.0214 122.969 46.5273 120.283 44.3714 117.36C40.0623 111.517 37.1066 104.685 35.7996 97.544C35.5141 95.9848 35.2898 94.3657 34.4741 93.0065C33.6584 91.6473 32.0573 90.608 30.5174 90.9932C28.0011 91.6219 27.6868 95.0463 28.0525 97.6111C29.8028 109.892 34.6496 121.718 42.0219 131.695C43.9124 134.253 48.0551 139.062 51.744 136.704C55.2623 134.453 52.4339 128.678 50.8851 126.087Z" fill="#F3D4AA"/>
</g>
<defs>
<clipPath id="clip0_118_3">
<rect width="167" height="134" fill="white" transform="translate(206.188 124.273) rotate(157.682)"/>
</clipPath>
</defs>
</svg>
