<svg width="187" height="177" viewBox="0 0 187 177" fill="none" xmlns="http://www.w3.org/2000/svg">
<path d="M168.641 117.3C136.426 155.796 59.8421 166.833 47.0962 152.296C46.9795 152.165 46.8682 152.029 46.7564 151.893C38.7671 142.326 40.9513 128.284 44.8199 117.125C44.9121 116.858 45.0043 116.591 45.1013 116.324C48.5526 106.67 53.1343 99.3701 53.1343 99.3701L56.3232 92.7201L56.5851 92.1767C56.5851 92.1767 55.3763 92.6426 53.3137 93.3321C47.6204 95.2347 35.4223 98.8267 24.1568 98.9238C23.9626 98.9287 23.7636 98.9287 23.5645 98.9287C12.3471 98.9042 3.09606 95.1425 0.499044 82.9743C-5.90287 52.9676 50.5617 10.0889 96.8525 2.72538C132.169 -2.89533 180.557 15.0932 182.858 77.5085C183.431 93.0457 177.849 106.297 168.641 117.3Z" fill="#F3C484"/>
<path d="M168.641 117.3C159.016 128.799 145.43 137.852 130.771 144.501C118.297 150.161 105.041 154.078 92.7901 156.291C71.2439 160.183 52.7944 158.796 47.0962 152.296C46.9795 152.165 46.8681 152.029 46.7563 151.893C50.3626 148.777 54.9834 146.899 59.6675 145.874C65.0989 144.68 70.6907 144.534 76.2384 144.18C81.8836 143.821 87.5186 143.249 93.1201 142.457C106.152 140.628 119.025 137.647 131.533 133.555C139.785 130.866 147.876 127.692 155.759 124.051C160.161 122.023 164.51 119.834 168.641 117.3Z" fill="#D8A160"/>
<path d="M132.524 171.566C124.18 173.58 93.4017 176.745 93.4017 176.745C92.8045 171.838 92.7029 163.892 92.7902 156.291C92.8485 151.184 92.9893 146.234 93.1202 142.457C106.153 140.628 119.025 137.647 131.534 133.555C131.087 137.235 130.859 140.933 130.771 144.501C130.422 159.111 132.524 171.566 132.524 171.566Z" fill="#EDEBE6"/>
<path d="M131.533 133.556C119.025 137.648 106.153 140.628 93.1202 142.458C93.0943 143.204 93.0681 144.008 93.0422 144.839C106.2 144.193 119.016 140.985 131.219 136.557C131.309 135.557 131.412 134.556 131.533 133.556Z" fill="#DED9CE"/>
<path d="M171.479 118.474C173.652 116.999 174.931 114.516 176.12 112.137C179.059 106.262 182.009 100.356 184.01 94.0798C190.129 74.8745 186.595 52.9809 175.798 36.0813C165.001 19.1818 147.386 7.30969 128.243 2.54589C109.099 -2.21791 88.5928 -0.0956688 70.2369 7.2362C67.908 8.16616 65.2139 9.77399 65.3038 12.3358C65.3555 13.8127 66.3678 15.0446 67.3276 16.1474C73.3078 23.021 79.2879 29.8946 85.2681 36.7681C88.4138 40.3837 91.5938 44.0501 93.7575 48.3578C95.7853 52.3948 96.8524 56.8606 98.5694 61.0468C100.286 65.2329 102.862 69.3287 106.834 71.3346C110.693 73.2832 115.687 73.1946 118.552 76.485C121.974 80.4146 120.347 86.8143 122.722 91.4859C124.429 94.8432 127.948 96.7953 131.427 98.0589C134.907 99.3224 138.599 100.125 141.747 102.102C145.98 104.759 148.757 109.224 152.18 112.909C155.997 117.02 166.007 122.189 171.479 118.474Z" fill="#612613"/>
<path d="M180.484 95.8997C174.659 103.666 161.554 114.83 154.273 105.607C147.963 97.8411 142.624 90.5604 132.431 88.1336C130.975 87.6481 128.548 86.1921 128.548 84.2503C128.062 71.1449 118.84 63.3788 106.22 59.981C104.764 59.981 103.308 58.0396 102.822 56.5832C97.4716 36.5209 88.1422 27.9656 78.0146 17.5374C72.8371 12.2062 77.6984 6.56812 77.3764 4.68416C74.9664 5.44799 72.5841 6.29867 70.2374 7.2362C67.9085 8.16615 65.2144 9.77398 65.3043 12.3358C65.356 13.8127 66.3683 15.0446 67.3281 16.1474C73.3083 23.021 79.2884 29.8945 85.2686 36.7686C88.4143 40.3842 91.5943 44.0506 93.758 48.3583C95.7858 52.3952 96.8529 56.8611 98.5699 61.0472C100.287 65.2334 102.862 69.3291 106.834 71.3351C110.694 73.2836 115.687 73.195 118.553 76.4855C121.975 80.4151 120.347 86.8148 122.722 91.4864C124.429 94.8437 127.948 96.7958 131.428 98.0593C134.908 99.3233 138.599 100.125 141.748 102.102C145.981 104.759 148.757 109.224 152.18 112.91C155.998 117.021 166.008 122.19 171.48 118.475C173.653 116.999 174.931 114.516 176.121 112.138C179.06 106.263 182.01 100.357 184.011 94.0803C184.572 92.317 185.051 90.5306 185.452 88.7281C183.986 91.2085 182.368 93.6113 180.484 95.8997Z" fill="#4F1B0D"/>
<path d="M172.432 55.6608C174.77 60.8958 175.99 66.627 175.988 72.3608C175.987 73.513 175.955 74.7347 176.534 75.7306C177.114 76.7264 178.574 77.3041 179.449 76.5545C179.972 76.1069 180.112 75.3667 180.203 74.6848C181.324 66.3156 179.859 57.6481 176.183 50.0565C175.369 48.3743 172.786 43.1892 169.941 45.3324C167.47 47.1941 171.542 53.6677 172.432 55.6608Z" fill="#844536"/>
<path d="M174.232 93.0061C174.33 93.643 174.527 94.3631 175.109 94.6379C176.082 95.0967 177.023 93.9538 177.45 92.9669C178.768 89.9187 179.532 86.6313 179.69 83.3141C179.907 78.7694 176.668 80.5122 175.434 83.2798C174.104 86.2625 173.742 89.7962 174.232 93.0061Z" fill="#844536"/>
<path d="M16.6139 57.9585C15.8528 59.0653 15.092 60.2469 14.9615 61.5834C14.831 62.92 15.5512 64.4383 16.8575 64.7497C18.4159 65.1207 19.7828 63.7293 20.8072 62.4974C28.6263 53.0954 38.0323 45.0166 48.5077 38.7069C51.1328 37.1258 53.9017 35.5883 55.7527 33.1458C56.9887 31.5153 58.3293 28.2537 57.2292 26.2335C55.8984 23.7901 54.5266 25.0501 52.3678 26.1894C47.5933 28.7089 43.0259 31.6195 38.7204 34.8761C30.1869 41.3302 22.6782 49.1413 16.6139 57.9585Z" fill="#F3D4AA"/>
<path d="M70.7197 97.8607C65.6473 105.103 54.1974 110.073 44.8199 117.126C44.9121 116.859 45.0043 116.592 45.1014 116.325C48.5526 106.67 53.1343 99.3706 53.1343 99.3706L56.3232 92.7206L56.5851 92.1772C56.5851 92.1772 55.3763 92.6431 53.3138 93.3325C47.6205 95.2352 35.4223 98.8272 24.1569 98.9243C29.9571 94.5609 34.6652 89.9057 40.9558 85.7557C46.2367 82.2706 51.6195 78.0769 57.8326 76.5626C63.4823 75.189 68.4772 75.4072 71.5446 80.5184C71.6368 80.6788 71.729 80.8387 71.8212 81.0039C74.7291 86.3569 74.1175 93.0163 70.7197 97.8607Z" fill="#EDB972"/>
<path d="M88.0138 12.9429C87.9653 13.1344 87.9181 13.3428 87.9956 13.5245C88.1283 13.8363 88.5554 13.9013 88.8801 13.8029C89.2043 13.7045 89.4894 13.4952 89.8194 13.4181C90.6389 13.2275 91.4134 13.8911 92.2516 13.9628C93.2711 14.0501 94.2069 13.1758 94.4113 12.1733C94.7725 10.3993 92.9322 7.6513 90.9876 7.66466C88.6632 7.68069 88.432 11.2856 88.0138 12.9429Z" fill="#CB8645"/>
<path d="M93.5727 27.4873C93.717 27.9197 93.8992 28.3508 94.2043 28.6898C94.5094 29.0287 94.9574 29.2652 95.4113 29.2207C95.9529 29.1677 96.3942 28.7268 96.6071 28.2261C96.82 27.7255 96.8476 27.1679 96.8717 26.6241C96.9247 25.4425 96.9777 24.2609 97.0307 23.0793C97.1126 21.255 95.1601 19.4757 93.7237 21.3013C92.576 22.7604 93.0525 25.9257 93.5727 27.4873Z" fill="#CB8645"/>
<path d="M105.714 16.2944C105.132 16.8266 104.558 17.5103 104.619 18.2968C104.682 19.1203 105.469 19.7501 106.285 19.873C107.102 19.9959 107.926 19.7171 108.67 19.3586C109.787 18.8201 110.804 18.0973 111.815 17.378C112.369 16.9838 112.961 16.5344 113.124 15.8744C113.344 14.9881 112.649 14.0817 111.803 13.7401C109.546 12.8298 107.277 14.8647 105.714 16.2944Z" fill="#CB8645"/>
<path d="M102.436 5.5776C102.426 6.05327 102.537 6.59708 102.949 6.83491C103.293 7.03311 103.723 6.94804 104.116 7.00683C105.04 7.14579 105.681 8.06729 106.594 8.26281C107.462 8.44853 108.387 7.86731 108.723 7.04513C109.059 6.22341 108.862 5.24446 108.348 4.52027C107.835 3.79607 107.042 3.30615 106.204 3.0122C103.903 2.20517 102.488 2.94228 102.436 5.5776Z" fill="#CB8645"/>
<path d="M106.248 30.3444C106.109 30.9496 106.088 31.6841 106.564 32.084C107.148 32.5766 108.065 32.2359 108.78 32.5049C109.512 32.7793 109.928 33.6504 110.691 33.8183C111.239 33.9386 111.796 33.6487 112.223 33.2843C113.533 32.1642 114.058 30.2103 113.483 28.5847C112.964 27.1158 111.189 25.4354 109.505 25.8785C107.795 26.3288 106.603 28.7985 106.248 30.3444Z" fill="#CB8645"/>
<path d="M103.464 44.6487C103.543 45.2843 103.705 45.9902 104.247 46.3327C104.665 46.5977 105.225 46.5647 105.668 46.3434C106.111 46.122 106.453 45.7368 106.726 45.3235C107.61 43.9864 107.866 42.339 108.016 40.7432C108.084 40.0297 108.123 39.2641 107.762 38.645C107.276 37.8121 106.124 37.5066 105.223 37.8526C102.78 38.7919 103.212 42.6307 103.464 44.6487Z" fill="#CB8645"/>
<path d="M122.462 33.7765C123.464 34.0335 124.179 35.0173 124.295 36.0448C124.411 37.0723 124.003 38.1087 123.363 38.9211C122.794 39.644 121.96 40.2461 121.04 40.2172C119.436 40.1664 117.466 38.2232 118.114 36.5668C118.689 35.0993 120.848 33.3627 122.462 33.7765Z" fill="#CB8645"/>
<path d="M121.063 19.4031C120.9 20.4266 121.274 21.6127 122.202 22.0754C122.83 22.389 123.624 22.34 124.171 22.7796C124.613 23.135 124.781 23.7193 125.045 24.2213C125.309 24.7232 125.814 25.2114 126.367 25.0853C126.702 25.0087 126.949 24.7237 127.123 24.4275C127.743 23.3724 127.72 22.0282 127.301 20.8782C126.883 19.7278 126.111 18.7417 125.282 17.8407C123.35 15.7399 121.489 16.7344 121.063 19.4031Z" fill="#CB8645"/>
<path d="M121.671 10.1214C121.914 10.8197 122.395 11.6041 123.134 11.5818C123.803 11.5618 124.352 10.8567 125.011 10.9712C125.332 11.0269 125.638 11.2758 125.948 11.1765C126.258 11.0767 126.36 10.6933 126.384 10.3681C126.543 8.13588 124.983 5.61413 122.75 5.03068C119.96 4.30248 121.176 8.70463 121.671 10.1214Z" fill="#CB8645"/>
<path d="M136.113 15.8517C136.611 16.8613 137.444 17.761 138.525 18.0772C139.362 18.3226 140.326 18.2206 141.039 18.7244C141.505 19.054 141.859 19.6347 142.429 19.6655C143.139 19.7033 143.548 18.8785 143.702 18.185C143.874 17.4127 143.968 16.5981 143.752 15.837C143.537 15.0758 142.957 14.3779 142.183 14.2149C141.62 14.0964 141.033 14.2657 140.462 14.198C139.514 14.0853 138.778 13.3589 137.985 12.8284C137.408 12.4427 135.94 11.8285 135.373 12.5852C134.899 13.2172 135.802 15.2201 136.113 15.8517Z" fill="#CB8645"/>
<path d="M135.694 29.7636C135.986 30.4009 136.464 31.1193 137.164 31.0793C137.547 31.0574 137.884 30.7911 138.08 30.4615C138.277 30.1319 138.353 29.7458 138.401 29.3654C138.59 27.8805 138.397 26.3489 137.847 24.9566C137.642 24.4386 137.38 23.9287 136.974 23.5478C135.919 22.5595 134.306 23.061 134.139 24.4734C133.947 26.0977 135.039 28.3304 135.694 29.7636Z" fill="#CB8645"/>
<path d="M112.213 53.4891C112.02 54.6809 112.574 55.9614 113.574 56.6379C114.373 57.1786 115.389 57.3394 116.163 57.9153C116.671 58.2925 117.108 58.8595 117.737 58.917C118.266 58.9655 118.772 58.6052 119.025 58.1371C119.278 57.6694 119.318 57.1149 119.286 56.5845C119.169 54.6578 118.083 52.8388 116.514 51.7334C114.718 50.4685 112.602 51.0822 112.213 53.4891Z" fill="#CB8645"/>
<path d="M135.013 46.339C134.995 46.7051 134.991 47.1041 135.211 47.3972C135.469 47.7406 135.941 47.8225 136.367 47.8782C136.94 47.9535 137.553 48.0221 138.069 47.7602C138.736 47.4212 139.032 46.6427 139.27 45.9323C139.644 44.8166 140.019 43.6965 140.228 42.539C140.391 41.6348 140.436 40.6421 139.955 39.8587C139.103 38.4713 136.832 38.4731 135.951 39.8342C134.952 41.3774 135.102 44.5592 135.013 46.339Z" fill="#CB8645"/>
<path d="M147.255 32.3156C147.325 33.0291 147.438 33.7841 147.903 34.3297C148.489 35.0173 149.526 35.191 150.393 34.9354C151.26 34.6802 151.978 34.0669 152.578 33.3908C153.489 32.3633 154.193 31.1519 154.634 29.8509C154.974 28.8466 155.093 27.5772 154.3 26.8731C153.659 26.3039 152.696 26.3533 151.843 26.4357C150.657 26.5506 147.892 26.25 147.24 27.4084C146.611 28.5268 147.125 31.1024 147.255 32.3156Z" fill="#CB8645"/>
<path d="M160.657 32.8332C160.544 33.1391 160.442 33.4946 160.604 33.7769C160.812 34.1372 161.309 34.1653 161.685 34.3443C162.408 34.6891 162.648 35.5878 163.178 36.1891C163.998 37.1195 165.545 37.2041 166.565 36.4991C167.586 35.7945 168.064 34.4544 167.902 33.2247C167.737 31.9669 166.944 30.808 165.831 30.1992C164.92 29.7008 163.349 29.4367 162.371 29.9328C161.376 30.4379 161.028 31.8235 160.657 32.8332Z" fill="#CB8645"/>
<path d="M160.354 49.087C160.411 50.636 161.389 51.9779 162.326 53.2125C162.63 53.6134 163.007 54.053 163.511 54.0579C163.975 54.0623 164.351 53.6873 164.615 53.3043C165.498 52.0202 165.745 50.3198 165.262 48.8375C164.933 47.8247 163.758 45.9109 162.538 45.7867C161.125 45.6424 160.312 47.9374 160.354 49.087Z" fill="#CB8645"/>
<path d="M147.171 48.5845C146.802 49.9069 146.962 51.3686 147.607 52.5805C148.012 53.3403 148.706 54.0525 149.567 54.0699C150.336 54.085 151.003 53.5425 151.492 52.9488C152.485 51.7427 153.052 50.1928 153.071 48.6309C153.083 47.6065 152.874 46.5425 153.232 45.5827C153.377 45.1956 153.61 44.7632 153.414 44.3997C153.209 44.0198 152.676 43.9922 152.253 44.0759C150.115 44.4986 147.758 46.4788 147.171 48.5845Z" fill="#CB8645"/>
<path d="M133.245 58.118C132.341 58.8417 131.512 59.7699 131.304 60.9096C131.096 62.0493 131.728 63.3957 132.862 63.6353C133.654 63.8028 134.471 63.4198 135.276 63.5097C135.89 63.5783 136.479 63.9204 137.09 63.8246C137.97 63.6866 138.449 62.7383 138.735 61.8948C139.144 60.6878 139.452 59.3793 139.123 58.1478C138.829 57.0455 137.647 55.7142 136.38 55.9432C135.35 56.1289 134.044 57.4788 133.245 58.118Z" fill="#CB8645"/>
<path d="M126.519 47.3753C125.982 48.0185 125.513 48.7667 125.44 49.6013C125.367 50.436 125.793 51.3588 126.584 51.6354C127.229 51.8617 127.974 51.6082 128.471 51.1379C128.967 50.6676 129.251 50.0133 129.434 49.3537C129.682 48.4572 130.153 46.0044 129.228 45.5559C128.125 45.0219 127.045 46.7442 126.519 47.3753Z" fill="#CB8645"/>
<path d="M160.504 62.3664C160.072 62.872 159.628 63.54 159.889 64.1515C160.219 64.9265 161.325 64.8944 162.037 65.3447C162.557 65.6738 162.847 66.2564 163.212 66.753C163.577 67.2496 164.14 67.7097 164.745 67.5957C165.156 67.5182 165.48 67.1824 165.654 66.8025C165.828 66.4225 165.876 65.9985 165.92 65.583C166.039 64.4637 166.146 63.3182 165.885 62.223C164.992 58.4622 162.216 60.3636 160.504 62.3664Z" fill="#CB8645"/>
<path d="M166.002 75.9773C166.066 76.6899 166.434 77.4074 167.069 77.737C167.741 78.0862 168.585 77.9392 169.239 77.5544C169.892 77.1696 170.394 76.5794 170.883 76.0005C171.512 75.2562 172.147 74.5026 172.586 73.6324C173.573 71.6754 172.672 68.6788 170.058 69.6043C167.855 70.3846 165.799 73.6845 166.002 75.9773Z" fill="#CB8645"/>
<path d="M152.638 72.5051C151.766 73.0614 150.782 73.8355 150.888 74.8643C150.981 75.78 151.897 76.351 152.711 76.7803C153.783 77.3455 154.856 77.9103 155.928 78.4754C156.269 78.6554 156.644 78.8411 157.024 78.7743C157.422 78.7044 157.72 78.3743 157.948 78.0403C158.735 76.8845 159.063 75.4255 158.846 74.0439C158.691 73.0587 157.949 70.9365 156.841 70.6047C155.662 70.251 153.57 71.9105 152.638 72.5051Z" fill="#CB8645"/>
<path d="M147.361 63.5449C146.966 64.0064 146.557 64.6197 146.805 65.1742C146.948 65.4926 147.27 65.6846 147.573 65.856C148.225 66.2244 148.884 66.5963 149.604 66.8025C150.324 67.0087 151.121 67.0367 151.802 66.7263C152.965 66.1959 153.508 64.8379 153.683 63.5712C153.773 62.9161 153.782 62.2012 153.417 61.6494C153.098 61.1671 152.535 60.8896 151.966 60.7885C149.691 60.3836 148.734 61.942 147.361 63.5449Z" fill="#CB8645"/>
<path d="M136.238 77.5998C136.265 78.1125 136.354 78.6901 136.775 78.9845C137.148 79.2459 137.65 79.1903 138.089 79.3114C138.934 79.5452 139.529 80.432 140.403 80.5001C141.1 80.5545 141.721 80.0552 142.146 79.5007C143.08 78.2799 143.436 76.6351 143.09 75.1373C142.744 73.6395 141.703 72.3176 140.328 71.6299C136.232 69.5812 136.096 74.9903 136.238 77.5998Z" fill="#CB8645"/>
<path d="M129.324 67.0501C130.086 67.4683 130.864 67.8985 131.448 68.543C132.031 69.1875 132.396 70.0978 132.17 70.9374C131.944 71.7769 130.99 72.4201 130.175 72.1159C129.444 71.8428 129.116 71.0104 128.563 70.4599C127.958 69.8564 127.096 69.6084 126.307 69.2788C125.518 68.9492 124.704 68.4392 124.468 67.6175C124.198 66.6742 124.682 65.3046 125.744 65.2441C126.78 65.1844 128.444 66.5673 129.324 67.0501Z" fill="#CB8645"/>
<path d="M143.975 86.3262C143.777 86.9733 143.724 87.7982 144.263 88.2066C144.534 88.4115 144.889 88.4547 145.208 88.5683C146.502 89.0266 147.202 90.6197 148.548 90.8883C149.393 91.0566 150.278 90.6143 150.812 89.9391C151.347 89.2639 151.577 88.3941 151.661 87.5372C151.793 86.1979 151.58 84.7847 150.828 83.6682C148.38 80.0294 144.889 83.3364 143.975 86.3262Z" fill="#CB8645"/>
<path d="M160.164 82.4433C161.004 81.2653 162.542 80.4547 163.915 80.9121C164.714 81.178 165.334 81.8229 165.796 82.5275C166.515 83.6263 166.924 84.9255 166.965 86.238C166.998 87.3127 166.647 88.5709 165.64 88.949C164.975 89.1989 164.236 88.9807 163.56 88.762C162.424 88.3945 159.062 87.9465 158.658 86.6575C158.344 85.6532 159.611 83.2179 160.164 82.4433Z" fill="#CB8645"/>
<path d="M158.335 101.485C158.695 102.32 159.466 102.909 160.279 103.316C161.291 103.821 162.43 104.102 163.557 104.011C164.684 103.92 165.794 103.437 166.553 102.599C167.136 101.954 167.501 101.064 167.343 100.209C167.108 98.9465 165.794 98.1168 164.514 98.0081C162.632 97.8482 157.067 98.5461 158.335 101.485Z" fill="#CB8645"/>
<path d="M154.324 93.7111C154.1 94.2504 154.055 94.9501 154.484 95.3469C154.821 95.6592 155.328 95.6761 155.788 95.6667C156.818 95.6462 157.848 95.5857 158.873 95.4846C159.283 95.444 159.701 95.3955 160.075 95.224C160.45 95.0525 160.781 94.7363 160.868 94.3333C161.212 92.7254 158.442 92.3571 157.427 92.089C156.041 91.722 154.914 92.2876 154.324 93.7111Z" fill="#CB8645"/>
</svg>
