<svg width="213" height="170" viewBox="0 0 213 170" fill="none" xmlns="http://www.w3.org/2000/svg">
<path d="M168.098 144.042C164.173 151.802 158.347 158.032 149.863 161.331C132.443 168.106 116.511 139.626 104.539 120.549C98.8392 111.466 94.036 104.516 90.3954 104.516C87.4576 104.516 83.6727 108.846 79.2435 115.238C66.6408 133.405 48.8069 168.223 30.4323 167.331C14.2249 166.548 8.20519 136.025 5.66843 124.393C0.333571 99.9422 -3.70813 72.8038 5.38907 48.5012C14.1709 25.0449 35.2715 9.81242 59.0621 3.78516C67.2536 1.71006 75.6704 0.562221 84.1008 0.116591C117.746 -1.67043 146.042 17.2666 161.691 44.4455C168.382 56.0634 172.761 69.1892 174.257 82.8462C176.105 99.7306 177.231 126.009 168.098 144.042Z" fill="#F3C484"/>
<path d="M175.447 109.57C175.059 121.593 173.144 134.076 168.098 144.042C166.584 136.979 166.525 126.86 166.696 113.433C166.809 105.132 167.007 95.5669 167.007 84.6782C167.007 82.3916 166.967 80.1859 166.881 78.0613C166.304 62.3427 163.741 51.1074 161.691 44.4455C166.818 53.3536 170.589 63.144 172.743 73.3844C173.401 76.4993 173.91 79.6593 174.257 82.8462C175.082 90.3994 175.767 99.8341 175.447 109.57Z" fill="#D8A160"/>
<path d="M212.669 85.7271C212.669 85.7271 194.056 100.392 175.447 109.571C172.505 111.024 169.562 112.339 166.697 113.433C166.809 105.132 167.007 95.5669 167.007 84.6782C167.007 82.3916 166.967 80.1859 166.881 78.0613C168.562 76.7154 170.563 75.1175 172.743 73.3845C181.94 66.0653 194.38 56.311 199.85 52.6559C199.85 52.6559 211.867 70.139 212.669 85.7271Z" fill="#EDEBE6"/>
<path d="M171 74.7713C169.495 75.9709 168.103 77.0832 166.881 78.0613C166.967 80.1859 167.007 82.3916 167.007 84.6782C167.007 95.5669 166.809 105.132 166.697 113.433C168.224 112.849 169.775 112.2 171.335 111.503C170.191 99.3746 171.421 87.2053 171 74.7713Z" fill="#DED9CE"/>
<path d="M104.539 120.549C98.8393 111.466 94.0362 104.515 90.3955 104.515C87.4577 104.515 83.6728 108.846 79.2437 115.238C79.5951 104.709 80.8928 84.0345 85.6644 82.2385C91.3057 80.1139 98.3752 98.8799 104.539 120.549Z" fill="#EDB972"/>
<path d="M25.6625 30.1777C21.2937 35.0918 16.8893 40.0545 13.6668 45.7842C10.4442 51.5139 8.45267 58.1502 9.31193 64.6663C9.50388 66.1229 10.1162 67.8478 11.5648 68.1013C12.5192 68.2683 13.4721 67.6655 14.0227 66.8693C14.5733 66.073 14.8094 65.1088 15.0672 64.1761C18.7245 50.9274 28.3777 40.248 38.2391 30.6657C39.8806 29.0704 41.6153 27.3549 42.111 25.1214C43.0274 20.9901 39.2426 18.8169 35.984 20.6367C31.9229 22.904 28.7067 26.7536 25.6625 30.1777Z" fill="#F3D4AA"/>
<path d="M52.2102 12.4646C51.0162 13.1006 49.8334 13.8641 49.098 14.9988C48.3627 16.1336 48.1852 17.723 48.9935 18.807C49.8469 19.9516 51.5149 20.1938 52.8973 19.8328C54.2797 19.4718 55.4782 18.6346 56.7295 17.9463C59.8196 16.2466 63.3819 15.4148 66.9058 15.5705C67.8958 15.6142 68.8956 15.7335 69.8706 15.5597C70.8457 15.386 71.823 14.8548 72.2303 13.9527C73.8096 10.4566 67.8922 9.00535 65.5424 9.00715C61.0118 9.01165 56.1866 10.3472 52.2102 12.4646Z" fill="#F3D4AA"/>
<path d="M23.5277 112.984C27.7667 113.993 31.9711 115.438 36.3363 115.433C41.0723 115.428 45.9814 113.73 50.4214 115.326C54.3554 116.74 57.0071 120.466 60.9032 121.976C62.8024 122.711 64.8841 122.872 66.845 123.436C68.8059 123.999 70.7858 125.127 71.4734 126.992C72.1835 128.918 71.3328 131.021 70.4938 132.898C66.5792 141.655 60.5324 148.378 54.5235 155.808C47.2872 164.755 34.2294 175.201 22.2453 167.071C6.8265 156.612 3.54853 136.636 2.30674 120.196C2.14768 118.087 0.945986 113.759 2.73298 112.074C4.55558 110.355 9.3182 111.184 11.5945 111.294C15.6155 111.488 19.618 112.053 23.5277 112.984Z" fill="#E895AF"/>
<path d="M67.4957 134.19C54.1959 149.191 38.751 165.907 16.8704 161.192C16.2955 161.065 15.7394 160.91 15.1938 160.741C17.2083 163.096 19.536 165.233 22.2454 167.072C34.2299 175.201 47.2872 164.756 54.5235 155.808C60.5324 148.379 66.5792 141.656 70.4938 132.899C70.6119 132.635 70.7295 132.366 70.8435 132.094C69.6643 132.698 68.5131 133.343 67.4957 134.19Z" fill="#DD7FA0"/>
<path d="M108.159 131.426C107.16 129.934 107.237 128.034 108.347 126.611C110.162 124.284 113.009 121.027 115.147 120.4C118.542 119.405 124.082 120.235 126.763 118.576C129.443 116.918 137.663 114.963 141.594 115.526C145.526 116.088 155.175 114.134 158.035 115.526C160.894 116.918 168.039 115.526 168.039 115.526C168.039 115.526 174.663 115.447 175.284 120.245C175.904 125.043 175.368 132.174 173.403 139.139C171.437 146.104 164.825 163.683 151.959 165.673C139.093 167.663 130.649 159.703 123.613 152.074C118.288 146.301 111.261 136.064 108.159 131.426Z" fill="#E895AF"/>
<path d="M160.625 150.161C151.021 158.15 137.722 159.067 126.22 154.824C132.746 161.474 140.641 167.424 151.959 165.673C164.825 163.683 171.437 146.104 173.403 139.14C174.846 134.024 175.516 128.822 175.526 124.518C170.24 133.562 168.738 143.637 160.625 150.161Z" fill="#DD7FA0"/>
<path d="M9.91609 141.319C10.9673 145.647 13.1972 149.609 15.8115 153.217C16.3986 154.027 17.0515 154.858 17.9788 155.236C18.906 155.614 20.1744 155.342 20.5552 154.416C20.9913 153.357 20.105 152.261 19.3512 151.399C15.5537 147.056 13.5915 141.16 14.0294 135.409C14.166 133.619 13.8095 127.447 10.5 130.465C8.22101 132.544 9.29024 138.743 9.91609 141.319Z" fill="#EFB6CA"/>
<path d="M129.569 146.319C130.724 146.963 131.991 147.536 132.778 148.569C133.565 149.602 133.618 151.29 132.49 151.976C131.416 152.631 130.006 152.046 128.933 151.39C123.868 148.291 119.93 143.544 117.93 138.125C117.491 136.934 116.333 133.905 118.334 133.695C120.194 133.501 120.736 136.337 121.252 137.429C122.992 141.104 125.916 144.281 129.569 146.319Z" fill="#EFB6CA"/>
</svg>
