<svg width="180" height="190" viewBox="0 0 180 190" fill="none" xmlns="http://www.w3.org/2000/svg">
<path d="M178.216 100.792C178.216 102.801 175.576 109.331 170.703 117.739C161.434 133.747 144.079 156.593 121.462 168.153C113.482 172.234 105.06 175.501 96.4139 177.631C70.7843 183.959 43.2304 180.285 19.6281 158.075C-2.53768 137.216 -4.50678 104.77 6.63205 74.8042C18.6928 42.3589 70.2786 -1.57437 95.2101 2.4041C106.935 4.27474 103.695 45.1022 99.4526 56.505C98.8574 58.1072 98.1458 59.8391 97.3716 61.6426C92.6503 72.6651 85.6555 86.2742 88.8463 88.3283C92.1804 90.472 120.768 80.8413 144.236 82.1346C146.89 82.2778 149.481 82.5643 151.96 83.0252C176.359 87.5317 178.216 94.9561 178.216 100.792Z" fill="#F3C484"/>
<path d="M144.236 82.1346C128.036 90.3735 111.016 98.5945 92.8829 98.317C90.2962 98.2768 87.6603 98.0485 85.2795 97.0371C82.8942 96.0257 80.7819 94.1148 80.0703 91.6266C79.3051 88.9504 80.2315 86.1042 81.3234 83.5443C84.5366 76.026 89.3027 69.161 95.2145 63.5132C95.8724 62.8822 96.6018 62.2154 97.3715 61.6426C92.6502 72.6651 85.6554 86.2742 88.8463 88.3283C92.1803 90.472 120.768 80.8413 144.236 82.1346Z" fill="#EDB972"/>
<path d="M88.6248 65.3185C85.1449 64.0127 82.0592 61.8579 79.0152 59.7254C74.6545 56.6706 70.2939 53.6158 65.9332 50.5611C62.4752 48.1386 58.9537 45.6835 54.9465 44.3544C51.9987 43.3765 48.5864 42.869 46.679 40.4175C44.922 38.1593 44.6956 34.5201 42.0624 33.3999C40.4258 32.7036 37.9224 32.9439 37.4945 31.2174C37.2435 30.2033 38.0177 29.2469 38.7458 28.4973C50.5537 16.3471 65.3282 7.09995 81.4175 1.79055C86.4427 0.132032 92.1929 -1.08523 96.8265 1.47102C101.336 3.95924 103.408 9.27849 104.62 14.2845C107.194 24.9163 107.389 36.0985 105.316 46.8332C104.28 52.1981 102.681 57.4636 100.519 62.4826C98.324 67.5776 93.5046 67.1498 88.6248 65.3185Z" fill="#612613"/>
<path d="M93.5185 62.918C92.8329 63.9464 92.4113 65.1069 92.1504 66.3478C95.701 67.0285 98.8601 66.3335 100.52 62.4826C102.682 57.4636 104.281 52.1981 105.317 46.8332C106.716 39.5892 107.077 32.141 106.377 24.7959C102.88 37.6142 101.151 50.5615 93.5185 62.918Z" fill="#4F1B0D"/>
<path d="M6.1572 107.08C5.7061 111.669 5.62331 116.389 6.98019 120.796C7.68728 123.092 9.15649 125.555 11.5413 125.843C13.953 126.135 16.0676 123.912 16.6158 121.545C17.164 119.178 16.5867 116.717 16.1566 114.326C13.3265 98.5815 17.2499 81.7372 26.7463 68.8638C27.9945 67.1717 30.0916 64.615 29.1316 62.3233C28.3409 60.4347 26.6774 60.1689 24.9469 61.0465C20.9796 63.0581 17.7847 70.8069 15.8259 74.588C10.5975 84.6815 7.26929 95.7639 6.1572 107.08Z" fill="#F3D4AA"/>
<path d="M15.796 144.054C17.4769 147.34 19.8384 150.369 23.0002 152.274C24.0827 152.926 25.3076 153.451 26.5687 153.366C27.8298 153.281 29.1062 152.432 29.3353 151.189C29.6611 149.422 27.943 148.034 26.5329 146.921C23.5005 144.529 21.0266 141.433 19.3627 137.947C18.4166 135.965 16.4373 131.925 13.8376 134.526C11.6107 136.755 14.6772 141.866 15.796 144.054Z" fill="#F3D4AA"/>
<path d="M170.703 117.739C164.554 128.364 154.838 142 142.388 153.349C136.172 159.019 129.271 164.116 121.788 167.983C121.681 168.041 121.569 168.099 121.462 168.153C113.482 172.234 105.06 175.501 96.4139 177.631C103.646 172.328 111.33 167.589 118.871 162.698C125.731 158.249 132.475 153.675 138.642 148.435C141.542 145.978 144.312 143.369 146.912 140.559C151.62 135.47 155.684 129.787 160.727 125.03C162.491 123.365 166.836 119.377 170.703 117.739Z" fill="#D8A160"/>
<path d="M153.525 142.493C158.05 140.42 161.119 136.167 163.977 132.092C168.649 125.433 173.347 118.731 176.779 111.356C179.654 105.178 181.543 97.7147 178.292 91.726C175.615 86.7947 170.111 84.1355 164.769 82.4202C150.916 77.9727 135.716 77.8259 121.78 82.0053C119.383 82.7245 116.671 83.9458 116.151 86.3942C115.594 89.0216 117.92 91.3988 118.213 94.0683C118.498 96.6711 116.824 99.115 116.719 101.731C116.532 106.369 120.998 109.598 124.02 113.122C127.398 117.06 129.219 122.052 131.399 126.761C133.811 131.973 137.22 135.288 140.878 139.367C144.221 143.097 148.556 144.769 153.525 142.493Z" fill="#612613"/>
<path d="M141.098 78.9975C134.562 79.1304 128.043 80.1275 121.78 82.0058C119.383 82.7249 116.671 83.9462 116.152 86.3946C115.652 88.7499 117.465 90.9047 118.058 93.2489C126.013 89.1093 135.182 85.1035 141.098 78.9975Z" fill="#4F1B0D"/>
<path d="M155.518 168.502L137.232 189.929C132.408 185.821 126.116 175.618 121.788 167.983C120.661 165.996 119.667 164.183 118.871 162.698C125.731 158.249 132.475 153.676 138.642 148.435C139.886 150.127 141.144 151.774 142.388 153.349C149.204 161.99 155.518 168.502 155.518 168.502Z" fill="#EDEBE6"/>
<path d="M140.12 150.414C139.627 149.761 139.134 149.103 138.642 148.435C132.475 153.676 125.731 158.25 118.871 162.698C119.321 163.538 119.836 164.485 120.402 165.507C127.32 160.994 134.405 156.731 140.12 150.414Z" fill="#DED9CE"/>
<path d="M147.695 106.122C146.263 105.449 144.33 106.701 144.359 108.283C144.387 109.866 146.365 111.046 147.771 110.321C149.178 109.596 149.363 107.302 148.092 106.359L147.695 106.122Z" fill="#19A9A9"/>
<path d="M133.69 94.8653C132.222 95.209 131.569 97.3392 132.592 98.4468C133.615 99.5545 135.79 99.072 136.249 97.6359C136.708 96.1998 135.215 94.5454 133.74 94.8546L133.69 94.8653Z" fill="#F4D645"/>
<path d="M73.6815 37.7646C72.2137 38.1083 71.5603 40.2385 72.5833 41.3461C73.6063 42.4537 75.7817 41.9713 76.2405 40.5352C76.6992 39.0991 75.2067 37.4446 73.7312 37.7539L73.6815 37.7646Z" fill="#F4D645"/>
<path d="M166.02 106.115C164.51 106.352 163.691 108.458 164.644 109.653C165.596 110.848 167.832 110.519 168.4 109.1C168.968 107.681 167.577 105.9 166.062 106.108L166.02 106.115Z" fill="#D45E7E"/>
<path d="M53.3695 33.5955C54.6105 32.5067 56.9264 33.2921 57.2486 34.9112C57.5708 36.5303 55.7328 38.1432 54.1692 37.6129C52.606 37.0826 52.1281 34.6843 53.3695 33.5955Z" fill="#19A9A9"/>
<path d="M158.336 121.749C159.577 120.66 161.893 121.445 162.215 123.065C162.538 124.684 160.7 126.297 159.136 125.766C157.572 125.236 157.095 122.838 158.336 121.749Z" fill="#F4D645"/>
<path d="M85.2464 49.0269C86.4874 47.9381 88.8033 48.7235 89.1255 50.3426C89.4482 51.9618 87.6098 53.5746 86.0461 53.0443C84.4829 52.514 84.0054 50.1157 85.2464 49.0269Z" fill="#D45E7E"/>
<path d="M84.3062 16.0826C82.8195 16.1108 81.7343 18.0065 82.4624 19.303C83.1905 20.5995 85.374 20.659 86.1715 19.4041C86.9694 18.1493 85.9889 16.1976 84.5062 16.0884L84.3062 16.0826Z" fill="#D45E7E"/>
<path d="M88.9282 33.2898C87.4415 33.318 86.3563 35.2137 87.0844 36.5102C87.8125 37.8066 89.996 37.8662 90.7935 36.6113C91.5914 35.3565 90.6109 33.4048 89.1282 33.2956L88.9282 33.2898Z" fill="#19A9A9"/>
<path d="M154.831 93.2882C156.439 92.8555 158.211 94.5019 157.897 96.1367C157.584 97.7715 155.328 98.6455 153.995 97.6489C152.662 96.6523 152.861 94.2414 154.341 93.478L154.831 93.2882Z" fill="#D45E7E"/>
<path d="M143.549 121.201C145.157 120.768 146.929 122.415 146.615 124.05C146.301 125.684 144.046 126.558 142.713 125.562C141.38 124.565 141.579 122.154 143.059 121.391L143.549 121.201Z" fill="#D45E7E"/>
<path d="M69.0561 22.0763C67.3667 22.3958 66.4188 24.6755 67.3841 26.0986C68.349 27.5217 70.818 27.4841 71.7394 26.0328C72.6609 24.5815 71.645 22.3313 69.9471 22.0628L69.0561 22.0763Z" fill="#F4D645"/>
<path d="M155.037 82.4371C159.211 82.861 163.38 84.0505 166.826 86.4425C167.565 86.9553 168.291 87.5505 168.673 88.365C169.055 89.1795 168.995 90.2621 168.317 90.8528C167.286 91.751 165.71 91.052 164.5 90.4151C160.052 88.0741 154.967 86.9603 149.948 87.2279C148.134 87.3245 146.249 87.5881 144.548 86.9486C143.494 86.5521 142.295 85.5183 142.093 84.3472C141.782 82.5446 142.809 82.6667 144.304 82.5329C147.861 82.2134 151.478 82.0756 155.037 82.4371Z" fill="#844536"/>
<path d="M87.5373 3.83751C88.4301 3.89077 89.4876 4.13601 89.7928 4.97646C90.1486 5.95653 89.2048 6.90483 88.3097 7.43962C83.6425 10.2286 77.6431 10.2156 73.1549 13.2847C72.2867 13.8781 71.4838 14.5825 70.531 15.0269C69.5778 15.4713 68.4026 15.6176 67.5031 15.073C63.9574 12.9267 72.9172 8.16595 74.5314 7.26374C78.4925 5.0503 82.952 3.56363 87.5373 3.83751Z" fill="#844536"/>
</svg>
