<svg width="183" height="154" viewBox="0 0 183 154" fill="none" xmlns="http://www.w3.org/2000/svg">
<path d="M152.58 136.689C139.607 138.827 126.631 119.091 117.064 103.662C110.977 93.8426 106.269 85.7677 103.82 86.1772C101.654 86.5394 96.8157 93.0355 90.4889 101.327C78.5085 117.028 61.1855 139.174 46.5634 138.347C46.4374 138.343 46.3153 138.335 46.1933 138.323C28.1341 136.819 20.6773 98.8387 25.1695 68.9369C26.2522 61.7518 28.0199 55.0352 30.5002 49.4013C43.6263 19.5704 73.2565 0.904871 105.221 2.53874C142.304 4.43246 173.58 27.7122 179.411 55.1376C185.245 82.563 173.812 133.189 152.58 136.689Z" fill="#F3C484"/>
<path d="M46.5633 138.347C46.4373 138.343 46.3153 138.335 46.1932 138.323C42.7523 138.04 39.6971 136.426 37.0357 133.796C30.2837 127.138 26.071 113.949 24.5435 99.252C23.508 89.3189 23.7049 78.6968 25.1695 68.9369C26.1655 75.7558 27.7285 84.0393 29.8624 87.9291C30.3506 88.8228 30.9766 90.1063 31.6971 91.6969C35.2483 99.5552 41.1066 114.862 44.3389 127.048C45.4806 131.363 46.2956 135.284 46.5633 138.347Z" fill="#D8A160"/>
<path d="M44.3389 127.048C42.1302 128.941 39.6184 131.288 37.0357 133.796C27.7561 142.811 17.6143 153.953 17.6143 153.953L0 123.39C4.15357 120.347 15.7718 108.437 24.5435 99.252C27.327 96.3347 29.8191 93.6929 31.6971 91.6969C35.2483 99.5552 41.1066 114.862 44.3389 127.048Z" fill="#EDEBE6"/>
<path d="M31.6971 91.6969C30.9014 92.5425 29.9904 93.5095 28.9987 94.5591C33.8609 105.851 37.916 117.539 41.9893 129.127C42.8007 128.39 43.5885 127.691 44.3389 127.048C41.1066 114.862 35.2483 99.5552 31.6971 91.6969Z" fill="#DED9CE"/>
<path d="M83.2042 2.22062C91.0822 -0.150656 99.4669 -0.314043 107.67 0.313127C122.347 1.43558 136.996 5.11277 149.729 12.4986C162.462 19.8845 173.186 31.1634 178.495 44.8926C183.351 57.4458 183.523 71.3093 182.49 84.7291C181.115 102.579 176.936 121.705 163.426 133.452C161.763 134.898 159.47 136.274 157.483 135.32C155.754 134.489 155.193 132.203 155.61 130.33C156.026 128.457 157.164 126.842 158.048 125.14C160.083 121.221 160.805 116.713 160.643 112.301C160.383 105.201 157.939 98.3855 155.521 91.7039C154 87.4976 152.325 83.0724 148.835 80.2739C143.87 76.2928 136.089 76.3326 132.264 71.2467C128.491 66.2317 130.319 58.3159 126.011 53.7525C121.77 49.2599 114.093 50.5942 108.939 47.1871C106.271 45.4237 104.556 42.5662 102.273 40.3268C96.7834 34.9425 88.6569 33.6 81.349 31.2086C75.3387 29.2417 65.028 23.7948 64.9891 16.1936C64.9532 9.19114 77.797 3.84819 83.2042 2.22062Z" fill="#E895AF"/>
<path d="M162.686 107.221C160.718 97.7717 161.899 88.3228 155.206 80.0551C150.481 74.1495 141.426 73.7558 139.064 68.6377C134.34 57.614 129.615 44.228 115.442 44.228C114.261 44.228 113.08 43.0469 111.898 42.2595C107.961 37.9288 105.205 32.8106 100.087 30.4484C91.8196 26.5114 79.6148 26.1177 77.2525 16.6688C75.6789 11.1609 78.2333 6.2431 82.4601 2.45449C76.7084 4.31513 64.9548 9.49352 64.9895 16.1936C65.0284 23.7948 75.3387 29.2417 81.3494 31.2086C88.6573 33.6004 96.7838 34.9425 102.273 40.3268C104.556 42.5662 106.272 45.4237 108.939 47.1871C114.093 50.5938 121.771 49.26 126.011 53.7525C130.319 58.3159 128.491 66.2317 132.264 71.2471C136.09 76.333 143.87 76.2932 148.836 80.2744C152.326 83.0724 154 87.4976 155.522 91.7044C157.939 98.3855 160.383 105.201 160.644 112.301C160.806 116.714 160.083 121.222 158.048 125.14C157.164 126.843 156.026 128.458 155.61 130.331C155.194 132.203 155.754 134.489 157.483 135.32C159.47 136.274 161.763 134.898 163.426 133.452C166.294 130.959 168.738 128.13 170.827 125.054C171.232 117.998 169.763 111.467 162.686 107.221Z" fill="#DD7FA0"/>
<path d="M117.064 103.662C110.977 93.8425 106.269 85.7677 103.82 86.1771C101.654 86.5393 96.8157 93.0355 90.4889 101.327C90.5361 100.571 90.7015 99.756 90.9771 98.9253C94.2763 88.8779 97.67 78.8621 101.016 68.8306C101.509 67.3581 102.28 65.6455 103.816 65.4368C105.548 65.2045 106.765 67.051 107.485 68.6416C112.497 79.7125 115.737 91.5827 117.064 103.662Z" fill="#EDB972"/>
<path d="M36.6152 51.367C34.5404 55.347 32.6577 59.586 32.5266 64.0723C32.4742 65.8628 33.0538 68.0746 34.8042 68.4546C35.8912 68.6904 37.016 68.051 37.6888 67.1656C38.3621 66.2801 38.681 65.1837 39.0081 64.1203C42.407 53.0741 48.1381 42.7516 55.7169 34.026C57.1496 32.3764 59.6599 29.144 56.922 27.4744C54.1622 25.7913 51.5059 29.2511 50.0759 30.9945C44.9062 37.3004 40.3849 44.1359 36.6152 51.367Z" fill="#F3D4AA"/>
<path d="M165.578 43.7406C169.871 50.8651 172.373 59.0592 172.792 67.3668C172.84 68.3172 172.873 69.3113 173.34 70.1404C173.807 70.9695 174.871 71.5514 175.73 71.1436C176.413 70.8199 176.719 70.0286 176.924 69.3018C179.475 60.2659 176.105 50.6769 172.139 42.1662C171.118 39.9744 170.034 37.7713 168.421 35.9693C166.843 34.2055 163.252 31.3456 162.239 34.9598C161.439 37.8098 164.215 41.4792 165.578 43.7406Z" fill="#EFB6CA"/>
<path d="M145.249 23.6263C149.033 25.2464 152.505 27.5913 155.42 30.496C156.057 31.1299 156.848 31.8488 157.722 31.6437C158.495 31.4622 158.933 30.5763 158.872 29.785C158.81 28.9937 158.374 28.2858 157.926 27.6307C154.889 23.1928 150.48 19.2018 145.61 16.851C143.749 15.953 141.782 15.3451 140.671 17.6314C139.101 20.8621 142.894 22.6176 145.249 23.6263Z" fill="#EFB6CA"/>
<path d="M93.881 5.97026C93.581 5.5049 93.0231 5.36159 92.5345 5.61711L87.4499 8.275C86.9928 8.51398 86.818 9.18957 87.0967 9.62186C87.3967 10.0872 87.9546 10.2305 88.4432 9.97501C90.1381 9.08918 91.833 8.20295 93.5279 7.31712C93.985 7.07814 94.1598 6.40255 93.881 5.97026Z" fill="#D45E7E"/>
<path d="M92.0164 20.6137C90.4696 19.127 88.9227 17.6408 87.3758 16.1542C87.0042 15.7971 86.3483 15.7569 85.9841 16.1542C85.6294 16.5408 85.5876 17.1652 85.9841 17.5463C87.531 19.0329 89.0778 20.5192 90.6247 22.0058C90.9963 22.3629 91.6522 22.4031 92.0168 22.0058C92.3711 21.6192 92.4133 20.9948 92.0164 20.6137Z" fill="#F4D645"/>
<path d="M101.483 13.1872C101.329 12.7136 100.79 12.3105 100.272 12.4998C98.6306 13.0998 96.9897 13.7002 95.3483 14.3002C94.866 14.4766 94.4877 14.9762 94.6609 15.5109C94.8141 15.9845 95.3538 16.3877 95.8716 16.1983C97.5129 15.5983 99.1539 14.9979 100.795 14.3979C101.278 14.2215 101.656 13.7219 101.483 13.1872Z" fill="#19A9A9"/>
<path d="M111.771 7.77342C110.534 6.98483 109.296 6.19624 108.059 5.40765C107.624 5.13048 106.955 5.30332 106.713 5.7608C106.456 6.24781 106.602 6.8116 107.066 7.10727C108.303 7.89586 109.541 8.68445 110.778 9.47304C111.213 9.7502 111.882 9.57737 112.124 9.11988C112.382 8.63287 112.235 8.06909 111.771 7.77342Z" fill="#F4D645"/>
<path d="M118.061 18.1215C117.904 17.6353 117.374 17.2605 116.85 17.4341C115.45 17.8987 114.049 18.3633 112.649 18.8274C112.161 18.9893 111.792 19.5145 111.961 20.0381C112.119 20.5243 112.649 20.8991 113.172 20.7255C114.572 20.2609 115.973 19.7963 117.374 19.3322C117.861 19.1707 118.23 18.6455 118.061 18.1215Z" fill="#D45E7E"/>
<path d="M107.422 26.1684C106.569 24.9999 105.716 23.8314 104.863 22.6629C104.708 22.4495 104.539 22.283 104.275 22.2105C104.039 22.1456 103.726 22.1751 103.517 22.3097C103.106 22.5747 102.839 23.2117 103.164 23.6566C104.017 24.8251 104.869 25.9936 105.722 27.1621C105.878 27.3755 106.046 27.5417 106.31 27.6145C106.546 27.6795 106.859 27.6499 107.068 27.5153C107.48 27.2503 107.746 26.6133 107.422 26.1684Z" fill="#19A9A9"/>
<path d="M128.298 27.0645C127.888 26.6877 127.316 26.6964 126.906 27.0645C125.883 27.9834 124.859 28.9023 123.835 29.8216C123.451 30.1665 123.458 30.8673 123.835 31.2133C124.245 31.5901 124.817 31.5815 125.227 31.2133C126.251 30.2944 127.275 29.3755 128.299 28.4562C128.682 28.1114 128.676 27.411 128.298 27.0645Z" fill="#D45E7E"/>
<path d="M120.104 37.8839C118.863 37.1949 117.621 36.5059 116.379 35.8173C115.928 35.5677 115.284 35.6933 115.032 36.1705C114.787 36.6335 114.904 37.2504 115.385 37.5173C116.627 38.2063 117.869 38.8953 119.111 39.5839C119.561 39.8335 120.205 39.7079 120.458 39.2307C120.702 38.7677 120.585 38.1508 120.104 37.8839Z" fill="#F4D645"/>
<path d="M134.123 37.9819C133.729 37.6209 133.12 37.5933 132.731 37.9819C131.796 38.9134 130.861 39.8453 129.926 40.7768C129.561 41.1406 129.535 41.8095 129.926 42.1689C130.319 42.53 130.929 42.5575 131.318 42.1689C132.253 41.2374 133.188 40.3055 134.123 39.374C134.488 39.0099 134.514 38.341 134.123 37.9819Z" fill="#19A9A9"/>
<path d="M142.573 30.0464C141.482 28.8826 140.39 27.7192 139.298 26.5558C138.945 26.1795 138.258 26.1728 137.906 26.5558C137.536 26.959 137.529 27.5464 137.906 27.948C138.997 29.1114 140.09 30.2752 141.181 31.4385C141.535 31.8149 142.222 31.8216 142.573 31.4385C142.944 31.035 142.95 30.4476 142.573 30.0464Z" fill="#D45E7E"/>
<path d="M134.786 15.379C134.481 14.9069 133.932 14.779 133.439 15.0258C132.195 15.6483 130.951 16.2707 129.707 16.8936C129.245 17.1247 129.079 17.8136 129.354 18.2404C129.658 18.7121 130.207 18.8404 130.701 18.5936C131.945 17.9711 133.189 17.3487 134.433 16.7258C134.894 16.4947 135.061 15.8054 134.786 15.379Z" fill="#F4D645"/>
<path d="M128.185 10.6734C126.696 9.75808 125.208 8.84271 123.719 7.92735C123.28 7.65727 122.617 7.81751 122.372 8.28051C122.118 8.76122 122.256 9.33878 122.725 9.62737C124.214 10.5427 125.702 11.4581 127.191 12.3734C127.63 12.6435 128.293 12.4833 128.538 12.0203C128.792 11.5396 128.653 10.9616 128.185 10.6734Z" fill="#19A9A9"/>
<path d="M154.675 40.5461C154.283 39.2252 153.891 37.904 153.498 36.5831C153.352 36.0902 152.8 35.7295 152.287 35.8957C151.788 36.0571 151.443 36.578 151.6 37.1063L152.777 41.0693C152.924 41.5622 153.475 41.9229 153.988 41.7567C154.487 41.5953 154.832 41.0744 154.675 40.5461Z" fill="#19A9A9"/>
<path d="M145.391 42.3855C144.835 42.4103 144.435 42.8182 144.407 43.3697C144.331 44.8473 144.254 46.3253 144.178 47.8028C144.151 48.3178 144.65 48.8099 145.162 48.7871C145.718 48.7623 146.118 48.3544 146.147 47.8028C146.223 46.3253 146.299 44.8473 146.375 43.3697C146.402 42.8548 145.903 42.3626 145.391 42.3855Z" fill="#F4D645"/>
<path d="M163.354 48.9107C163.184 48.384 162.682 48.1017 162.144 48.2233C160.432 48.6096 158.721 48.9962 157.009 49.3824C156.507 49.4958 156.164 50.1037 156.322 50.593C156.493 51.1198 156.994 51.4021 157.533 51.2804C159.244 50.8942 160.956 50.5076 162.667 50.1214C163.17 50.008 163.513 49.4001 163.354 48.9107Z" fill="#F4D645"/>
<path d="M153.004 61.4541C152.685 60.212 152.366 58.9695 152.048 57.7273C151.92 57.2285 151.337 56.8781 150.837 57.0399C150.322 57.2064 150.013 57.7163 150.15 58.2505C150.468 59.4927 150.787 60.7352 151.106 61.9774C151.234 62.4762 151.817 62.8266 152.316 62.6648C152.831 62.4986 153.141 61.9888 153.004 61.4541Z" fill="#D45E7E"/>
<path d="M166.75 61.964C165.117 62.0258 163.483 62.0872 161.849 62.149C161.335 62.1683 160.841 62.588 160.865 63.1333C160.888 63.6498 161.298 64.1384 161.849 64.1175C163.483 64.0557 165.117 63.9943 166.75 63.9325C167.264 63.9132 167.759 63.4935 167.735 62.9482C167.712 62.4313 167.302 61.9431 166.75 61.964Z" fill="#D45E7E"/>
<path d="M160.422 67.9479C159.967 67.7073 159.332 67.8152 159.075 68.301C158.375 69.6231 157.675 70.9451 156.976 72.2672C156.735 72.7219 156.845 73.3585 157.329 73.6137C157.784 73.8542 158.418 73.7463 158.675 73.2605L160.775 69.2943C161.016 68.84 160.905 68.2034 160.422 67.9479Z" fill="#19A9A9"/>
<path d="M147.628 65.5234C146.392 64.8856 145.155 64.2482 143.919 63.6108C143.462 63.375 142.829 63.477 142.572 63.964C142.334 64.4152 142.437 65.0589 142.925 65.3109C144.162 65.9483 145.398 66.5861 146.635 67.2235C147.092 67.4593 147.724 67.3573 147.981 66.8703C148.219 66.4187 148.116 65.775 147.628 65.5234Z" fill="#F4D645"/>
<path d="M138.923 51.471L138.227 46.8044C138.151 46.2934 137.48 45.967 137.016 46.117C136.458 46.2973 136.247 46.78 136.329 47.3277C136.561 48.8832 136.793 50.4387 137.025 51.9942C137.101 52.5052 137.772 52.8316 138.236 52.6816C138.793 52.5013 139.005 52.0186 138.923 51.471Z" fill="#D45E7E"/>
<path d="M173.53 73.7448C172.364 73.2003 171.197 72.6558 170.031 72.1117C169.786 71.9971 169.542 71.9381 169.272 72.0125C169.044 72.0755 168.797 72.2518 168.684 72.4648C168.454 72.9003 168.539 73.579 169.037 73.8117C170.204 74.3562 171.371 74.9003 172.537 75.4448C172.782 75.559 173.026 75.6184 173.295 75.544C173.524 75.481 173.771 75.3046 173.884 75.0916C174.113 74.6558 174.028 73.977 173.53 73.7448Z" fill="#F4D645"/>
<path d="M163.427 84.135C162.901 82.5736 162.375 81.0118 161.849 79.4503C161.685 78.9633 161.164 78.5928 160.638 78.7629C160.154 78.9196 159.775 79.4511 159.951 79.9736C160.477 81.535 161.003 83.0968 161.529 84.6582C161.693 85.1452 162.214 85.5157 162.739 85.3456C163.223 85.1889 163.602 84.6574 163.427 84.135Z" fill="#D45E7E"/>
<path d="M175.676 83.1759C174.51 83.2594 173.343 83.3425 172.177 83.4259C171.665 83.4625 171.168 83.8523 171.193 84.4102C171.215 84.9122 171.627 85.4338 172.177 85.3945C173.343 85.311 174.51 85.2279 175.676 85.1445C176.188 85.1078 176.685 84.7181 176.66 84.1602C176.638 83.6582 176.226 83.1366 175.676 83.1759Z" fill="#19A9A9"/>
<path d="M167.009 97.7079C166.762 96.1548 166.514 94.6016 166.267 93.0489C166.185 92.539 165.523 92.2103 165.056 92.3614C164.502 92.5406 164.282 93.0256 164.369 93.5721C164.616 95.1252 164.864 96.6784 165.111 98.2312C165.193 98.741 165.855 99.0698 166.322 98.9186C166.876 98.7394 167.097 98.2544 167.009 97.7079Z" fill="#F4D645"/>
<path d="M175.211 95.352C175.01 95.1674 174.788 95.0859 174.515 95.0638C173.582 94.9886 172.648 94.913 171.715 94.8378C171.476 94.8185 171.184 94.9614 171.019 95.126C170.848 95.2969 170.72 95.5768 170.731 95.8221C170.742 96.0768 170.826 96.3406 171.019 96.5182C171.22 96.7028 171.442 96.7843 171.715 96.8063C172.648 96.8815 173.582 96.9571 174.515 97.0323C174.755 97.0516 175.047 96.9087 175.211 96.7441C175.382 96.5733 175.511 96.2934 175.5 96.0481C175.489 95.7937 175.405 95.5296 175.211 95.352Z" fill="#D45E7E"/>
<path d="M170.888 102.058C170.355 102.082 169.904 102.49 169.904 103.042V106.775C169.904 107.289 170.357 107.782 170.888 107.759C171.421 107.735 171.873 107.326 171.873 106.775V103.042C171.873 102.527 171.42 102.034 170.888 102.058Z" fill="#19A9A9"/>
<path d="M168.493 116.212C168.105 115.856 167.484 115.817 167.1 116.212C166.182 117.16 165.263 118.107 164.345 119.055C163.986 119.425 163.949 120.083 164.345 120.447C164.733 120.803 165.354 120.842 165.737 120.447C166.655 119.499 167.574 118.552 168.492 117.604C168.851 117.234 168.888 116.575 168.493 116.212Z" fill="#D45E7E"/>
<path d="M164.064 124.791C164.044 124.527 163.968 124.287 163.776 124.095C163.605 123.924 163.325 123.796 163.08 123.807C162.58 123.829 162.054 124.242 162.096 124.791C162.174 125.802 162.251 126.813 162.329 127.824C162.35 128.088 162.425 128.328 162.617 128.52C162.788 128.691 163.068 128.82 163.313 128.809C163.813 128.786 164.34 128.374 164.298 127.824C164.22 126.813 164.142 125.802 164.064 124.791Z" fill="#F4D645"/>
</svg>
