<svg width="144" height="155" viewBox="0 0 144 155" fill="none" xmlns="http://www.w3.org/2000/svg">
<path d="M116.259 118.054C108.911 122.655 100.312 126.334 91.0938 128.564C75.0957 132.435 57.2237 131.945 40.7391 124.347C28.4305 118.674 17.2147 104.481 9.68155 89.9904C1.31252 73.8929 -2.51059 57.4289 1.76471 51.8758C12.357 38.101 61.7731 66.4557 77.9664 68.1891C80.3884 68.4494 82.0704 68.1137 82.7624 66.949C85.2598 62.7559 74.4105 50.783 65.5482 37.9194C57.1278 25.7067 40.1509 11.689 47.6423 3.0055C57.4978 -8.41791 123.364 14.5217 134.936 41.5199C146.505 68.5214 136.354 105.468 116.259 118.054Z" fill="#F3C484"/>
<path d="M91.0937 128.564C78.0212 131.726 63.6948 131.979 49.896 127.814C46.8094 126.885 43.7502 125.734 40.739 124.347C35.275 121.829 30.0268 117.629 25.2205 112.473C19.1981 106.012 13.8711 98.0475 9.68146 89.9902C12.8023 91.0796 16.3068 93.2104 18.143 94.2416C22.2333 96.5334 26.0427 99.2979 29.7425 102.169C30.4722 102.734 31.1984 103.303 31.9281 103.878C38.7864 109.27 45.631 114.837 53.7088 118.081C54.9524 118.581 56.2164 119.02 57.4977 119.417C68.6347 122.857 80.9947 122.915 91.0937 128.564Z" fill="#D8A160"/>
<path d="M57.4976 119.417C55.038 122.096 52.4652 124.943 49.896 127.814C37.9676 141.143 26.1249 155 26.1249 155L2.57648 130.941C2.57648 130.941 7.64997 126.988 17.3927 119.678C20.3662 117.447 23.0006 114.916 25.2205 112.473C28.3071 109.089 30.6023 105.875 31.928 103.878C38.7863 109.27 45.6309 114.837 53.7088 118.081C54.9523 118.581 56.2164 119.02 57.4976 119.417Z" fill="#EDEBE6"/>
<path d="M53.7088 118.081C45.6309 114.837 38.7863 109.27 31.928 103.878C31.1864 104.996 30.1405 106.494 28.8226 108.19C32.607 111.231 35.4593 115.203 39.725 117.763C44.1544 120.531 48.5846 122.404 53.5567 123.744C54.89 122.27 56.2096 120.82 57.4976 119.417C56.2164 119.02 54.9523 118.581 53.7088 118.081Z" fill="#DED9CE"/>
<path d="M110.059 31.8448C108.162 39.0001 106.264 46.1551 104.367 53.3104C102.842 59.0611 101.159 65.0945 96.9661 69.315C93.65 72.6527 89.0365 74.5454 85.9863 78.1277C83.7301 80.7771 82.4574 84.2131 79.9138 86.5878C76.2679 89.9913 70.7857 90.5425 66.6196 93.2851C61.5671 96.6111 59.0539 102.855 58.7405 108.896C58.2571 118.206 58.0245 131.888 69.9039 133.521C76.213 134.389 85.0531 134.312 91.0443 132.422C99.2335 129.839 107.081 126.236 114.614 122.141C120.104 119.156 125.481 115.729 129.551 110.987C133.89 105.93 136.52 99.6408 138.623 93.318C143.005 80.143 145.395 65.9509 142.683 52.3341C141.193 44.8526 138.02 37.6435 133.305 31.6311C130.261 27.7497 120.986 17.2509 115.695 21.1692C112.409 23.6022 111.059 28.0738 110.059 31.8448Z" fill="#612613"/>
<path d="M69.8713 120.161C66.4456 116.05 69.5288 109.883 72.2693 105.43C76.7228 98.236 85.6297 95.838 88.7128 87.2737C92.1385 76.9965 104.129 72.543 108.925 62.6085C115.091 50.2759 115.776 37.6007 118.174 23.8978C118.45 22.5169 119.283 21.4707 120.381 20.6454C118.672 20.1086 117.052 20.1634 115.695 21.1686C112.409 23.6022 111.06 28.0738 110.059 31.8448C108.162 38.9998 106.264 46.1551 104.367 53.3104C102.842 59.0611 101.159 65.0945 96.9661 69.315C93.65 72.6523 89.0365 74.5454 85.9863 78.1277C83.7301 80.7771 82.4574 84.2131 79.9138 86.5878C76.2679 89.9913 70.7857 90.5425 66.6196 93.2851C61.5671 96.6111 59.0539 102.855 58.7405 108.896C58.2571 118.206 58.0245 131.888 69.9039 133.521C76.213 134.389 85.0531 134.312 91.0443 132.422C93.4098 131.676 95.7462 130.842 98.0551 129.939C87.5018 130.686 76.9708 128.049 69.8713 120.161Z" fill="#4F1B0D"/>
<path d="M129.803 36.8823C133.21 46.0862 136.673 55.6899 135.691 65.4549C135.573 66.632 135.399 67.8731 135.874 68.9566C136.348 70.0402 137.773 70.8007 138.749 70.1324C139.454 69.649 139.609 68.6891 139.685 67.8371C140.54 58.1742 139.058 48.3126 135.401 39.3279C134.642 37.4637 133.492 34.8964 131.669 33.8238C128.553 31.9904 129.02 34.7683 129.803 36.8823Z" fill="#844536"/>
<path d="M134.488 86.9342C134.475 87.8341 134.678 88.9608 135.546 89.1989C136.371 89.425 137.116 88.6405 137.513 87.8827C138.267 86.4426 140.434 79.0879 137.94 78.4281C134.891 77.622 134.509 85.4847 134.488 86.9342Z" fill="#844536"/>
<path d="M75.3114 10.8856C75.7728 11.6752 76.6241 12.1428 77.4514 12.533C85.5306 16.3444 95.4361 16.6288 102.062 22.6197C102.761 23.2514 103.445 23.9595 104.341 24.251C105.237 24.5422 106.42 24.2229 106.707 23.3261C107.031 22.3169 106.102 21.3727 105.256 20.7345C100.363 17.043 94.9575 14.0335 89.2506 11.7971C86.3974 10.679 83.468 9.75371 80.4894 9.03328C79.1739 8.71468 73.1395 7.16729 75.3114 10.8856Z" fill="#F3D4AA"/>
<path d="M87.5515 67.1476C86.1744 68.624 83.9887 69.179 81.9436 69.0557C80.5836 68.97 79.2613 68.6275 77.9663 68.189C80.3883 68.4493 82.0703 68.1136 82.7623 66.9489C85.2597 62.7558 74.4104 50.7829 65.5481 37.9193C67.0486 38.3338 68.5936 39.132 69.3643 39.55C76.346 43.3388 81.9162 49.2824 86.2189 55.7673C87.3665 57.4973 88.4559 59.3198 88.8841 61.3375C89.3089 63.3553 88.9766 65.6265 87.5515 67.1476Z" fill="#EDB972"/>
<path d="M91.2348 82.4674C90.8296 82.2533 90.2982 82.3578 90.0629 82.7747L88.1448 86.1743C87.9246 86.5645 88.039 87.1277 88.4521 87.3459C88.8574 87.56 89.3887 87.4556 89.6237 87.0387C90.263 85.9054 90.9025 84.7722 91.5418 83.639C91.7624 83.2491 91.648 82.6856 91.2348 82.4674Z" fill="#F4D645"/>
<path d="M86.5871 98.9557L85.7526 94.4937C85.6701 94.0525 85.1137 93.7613 84.6992 93.8956C84.2272 94.0484 84.0127 94.4762 84.1011 94.949L84.9356 99.411C85.0182 99.8522 85.5745 100.143 85.989 100.009C86.4611 99.8567 86.6755 99.4288 86.5871 98.9557Z" fill="#D45E7E"/>
<path d="M77.8173 96.8633C77.4518 96.5279 76.9725 96.5536 76.606 96.8633C75.4683 97.8256 74.3306 98.7878 73.1929 99.7501C72.8497 100.041 72.8716 100.666 73.1929 100.961C73.5581 101.297 74.0377 101.271 74.4043 100.961C75.5419 99.9992 76.6796 99.0369 77.8173 98.0746C78.1606 97.7838 78.1386 97.1582 77.8173 96.8633Z" fill="#19A9A9"/>
<path d="M71.7963 111.968C70.9844 111.223 70.1721 110.479 69.3602 109.734C69.03 109.432 68.4712 109.384 68.1489 109.734C67.8464 110.064 67.796 110.622 68.1489 110.946C68.9608 111.69 69.773 112.435 70.5849 113.179C70.9152 113.482 71.4739 113.53 71.7963 113.179C72.0991 112.849 72.1491 112.291 71.7963 111.968Z" fill="#D45E7E"/>
<path d="M86.1408 110.101C85.9051 109.735 85.3628 109.521 84.9692 109.794C84.0894 110.403 83.2097 111.012 82.33 111.621C82.144 111.749 81.998 111.908 81.9364 112.132C81.8798 112.337 81.9055 112.61 82.0227 112.792C82.2584 113.158 82.8007 113.372 83.1943 113.099C84.074 112.49 84.9537 111.881 85.8335 111.273C86.0195 111.144 86.1654 110.985 86.2271 110.761C86.2836 110.556 86.2579 110.283 86.1408 110.101Z" fill="#F4D645"/>
<path d="M73.8736 125.297C72.9058 124.174 71.9381 123.05 70.9703 121.927C70.6767 121.587 70.056 121.604 69.759 121.927C69.426 122.29 69.4459 122.775 69.759 123.139C70.7267 124.262 71.6945 125.385 72.6623 126.509C72.9559 126.849 73.5766 126.832 73.8736 126.509C74.2066 126.146 74.1867 125.661 73.8736 125.297Z" fill="#F4D645"/>
<path d="M96.632 119.331C96.3747 118.931 95.8814 118.793 95.4601 119.023C94.2655 119.675 93.0713 120.328 91.8768 120.98C91.4832 121.195 91.3239 121.771 91.5695 122.152C91.8268 122.551 92.3201 122.689 92.7411 122.459C93.9356 121.807 95.1298 121.154 96.3244 120.502C96.7187 120.287 96.8776 119.711 96.632 119.331Z" fill="#D45E7E"/>
<path d="M103.434 107.892C101.953 107.133 100.473 106.373 98.9917 105.613C98.5933 105.409 98.0441 105.496 97.8197 105.921C97.6128 106.312 97.7015 106.874 98.127 107.092C99.608 107.852 101.089 108.611 102.57 109.371C102.968 109.575 103.517 109.488 103.741 109.064C103.948 108.672 103.86 108.111 103.434 107.892Z" fill="#19A9A9"/>
<path d="M104.062 91.6918C103.744 91.3996 103.16 91.3263 102.851 91.6918C101.766 92.9754 100.681 94.2594 99.596 95.543C99.3072 95.8849 99.2356 96.4234 99.596 96.7543C99.9142 97.0465 100.498 97.1199 100.807 96.7543C101.892 95.4707 102.977 94.1868 104.062 92.9031C104.351 92.5613 104.423 92.0227 104.062 91.6918Z" fill="#D45E7E"/>
<path d="M116.13 97.3117C115.047 96.9732 113.964 96.6351 112.882 96.2967C112.454 96.1631 111.929 96.4546 111.829 96.8948C111.722 97.3603 111.969 97.8054 112.427 97.9482C113.509 98.2867 114.592 98.6248 115.675 98.9632C116.102 99.0968 116.628 98.8053 116.728 98.3651C116.834 97.8996 116.588 97.4546 116.13 97.3117Z" fill="#F4D645"/>
<path d="M113.826 107.072C113.367 106.967 112.909 107.21 112.773 107.67C112.434 108.82 112.094 109.97 111.755 111.121C111.628 111.55 111.908 112.073 112.353 112.174C112.813 112.279 113.271 112.036 113.407 111.576C113.746 110.426 114.085 109.276 114.425 108.126C114.551 107.696 114.272 107.174 113.826 107.072Z" fill="#D45E7E"/>
<path d="M125.013 89.0972C123.863 88.4881 122.713 87.879 121.562 87.2702C121.167 87.0606 120.613 87.1568 120.391 87.5775C120.181 87.9735 120.275 88.5254 120.698 88.7491C121.848 89.3582 122.999 89.9673 124.149 90.5761C124.545 90.7857 125.099 90.6894 125.321 90.2688C125.53 89.8728 125.437 89.3209 125.013 89.0972Z" fill="#F4D645"/>
<path d="M127.074 75.5125C126.672 75.3001 126.134 75.4008 125.903 75.8197C125.229 77.0396 124.556 78.2595 123.883 79.4794C123.666 79.8717 123.774 80.4315 124.19 80.6514C124.592 80.8638 125.13 80.7631 125.361 80.3441C126.035 79.1242 126.708 77.9043 127.382 76.6844C127.598 76.2922 127.49 75.7324 127.074 75.5125Z" fill="#D45E7E"/>
<path d="M128.438 98.1154C127.975 98.1363 127.582 98.4915 127.582 98.9718V102.829C127.582 103.277 127.976 103.706 128.438 103.685C128.902 103.664 129.295 103.309 129.295 102.829V98.9718C129.295 98.5237 128.901 98.0948 128.438 98.1154Z" fill="#D45E7E"/>
<path d="M123.288 109.923C123.257 109.687 123.213 109.493 123.037 109.318C122.888 109.169 122.645 109.057 122.431 109.067C122.21 109.077 121.98 109.15 121.826 109.318C121.684 109.473 121.547 109.704 121.575 109.923C121.706 110.939 121.837 111.955 121.968 112.97C121.998 113.206 122.043 113.401 122.219 113.576C122.367 113.725 122.611 113.836 122.824 113.827C123.046 113.817 123.276 113.744 123.43 113.576C123.572 113.421 123.709 113.19 123.681 112.97C123.55 111.955 123.419 110.939 123.288 109.923Z" fill="#19A9A9"/>
<path d="M107.529 119.025H103.875C103.427 119.025 102.997 119.419 103.018 119.881C103.039 120.345 103.394 120.738 103.875 120.738H107.529C107.977 120.738 108.406 120.344 108.385 119.881C108.364 119.418 108.009 119.025 107.529 119.025Z" fill="#F4D645"/>
<path d="M82.1974 122.926C82.1728 122.48 81.8213 122.048 81.341 122.07C80.8984 122.09 80.4578 122.448 80.4846 122.926C80.5524 124.145 80.6199 125.363 80.6877 126.581C80.7124 127.027 81.0638 127.459 81.5441 127.437C81.9867 127.417 82.4273 127.06 82.4006 126.581C82.3327 125.363 82.2652 124.145 82.1974 122.926Z" fill="#19A9A9"/>
<path d="M103.053 81.033C102.615 80.8014 102.156 80.947 101.881 81.3403C100.936 82.6948 99.9899 84.0494 99.0444 85.4039C98.7871 85.7725 98.9653 86.3713 99.3517 86.5755C99.7898 86.8071 100.249 86.6615 100.524 86.2682C101.469 84.9137 102.415 83.5591 103.36 82.2043C103.618 81.8364 103.44 81.2372 103.053 81.033Z" fill="#F4D645"/>
<path d="M114.349 85.7906L112.639 81.5623C112.472 81.1484 112.061 80.8103 111.585 80.9641C111.186 81.0936 110.807 81.5729 110.987 82.0176C111.557 83.4269 112.127 84.8366 112.697 86.2459C112.864 86.6597 113.276 86.9979 113.751 86.8441C114.15 86.7149 114.529 86.2353 114.349 85.7906Z" fill="#D45E7E"/>
<path d="M106.322 74.1819C106.29 73.7482 105.915 73.3005 105.44 73.3515C103.579 73.5512 101.718 73.751 99.857 73.9507C99.412 73.9983 98.9913 74.3467 99.0266 74.8325C99.0581 75.2662 99.4329 75.7139 99.9084 75.6629C101.769 75.4631 103.63 75.2634 105.491 75.064C105.936 75.0161 106.357 74.6677 106.322 74.1819Z" fill="#19A9A9"/>
<path d="M120.664 73.8537C119.8 72.8925 118.936 71.9315 118.071 70.9703C117.771 70.6363 117.162 70.6418 116.86 70.9703C116.532 71.3272 116.54 71.825 116.86 72.1816L119.453 75.065C119.753 75.3991 120.362 75.3936 120.664 75.065C120.992 74.7081 120.984 74.21 120.664 73.8537Z" fill="#F4D645"/>
<path d="M128.237 62.6417C127.915 62.3461 127.34 62.2803 127.026 62.6417L124.385 65.6854C124.235 65.8588 124.134 66.0551 124.134 66.2911C124.134 66.5011 124.228 66.7522 124.385 66.8968C124.707 67.1924 125.283 67.2582 125.596 66.8968L128.237 63.853C128.387 63.6797 128.488 63.4834 128.488 63.2474C128.488 63.0374 128.395 62.7863 128.237 62.6417Z" fill="#19A9A9"/>
<path d="M118.229 59.4414C117.476 58.6381 116.722 57.8347 115.969 57.031C115.661 56.7035 115.063 56.6977 114.757 57.031C114.435 57.3818 114.429 57.893 114.757 58.242C115.511 59.0454 116.264 59.849 117.018 60.6524C117.325 60.9799 117.923 60.9857 118.229 60.6524C118.551 60.3016 118.557 59.7908 118.229 59.4414Z" fill="#19A9A9"/>
<path d="M127.88 51.3512C127.486 51.1426 126.931 51.2347 126.709 51.6585L124.686 55.5193C124.478 55.9156 124.572 56.4682 124.993 56.6909C125.388 56.8995 125.943 56.8074 126.165 56.3836C126.839 55.0965 127.514 53.8098 128.188 52.5228C128.395 52.1264 128.302 51.5739 127.88 51.3512Z" fill="#F4D645"/>
<path d="M122.819 47.8254C122.163 46.6634 121.507 45.5014 120.85 44.3398C120.63 43.9496 120.063 43.7845 119.678 44.0325C119.284 44.287 119.135 44.7868 119.371 45.2044C120.027 46.3664 120.683 47.5281 121.34 48.6901C121.56 49.0803 122.127 49.2454 122.511 48.9974C122.906 48.7429 123.055 48.243 122.819 47.8254Z" fill="#D45E7E"/>
<path d="M125.215 34.1993C124.766 34.0972 124.283 34.3339 124.161 34.7974C123.823 36.0831 123.485 37.3688 123.146 38.6545C123.033 39.0871 123.29 39.6044 123.745 39.7079C124.193 39.81 124.676 39.5732 124.798 39.1097C125.136 37.8241 125.475 36.5384 125.813 35.2527C125.927 34.82 125.669 34.3028 125.215 34.1993Z" fill="#19A9A9"/>
<path d="M120.738 31.6163C120.328 30.3772 119.919 29.1378 119.509 27.8987C119.369 27.4739 118.912 27.1529 118.456 27.3006C118.033 27.4376 117.707 27.8987 117.858 28.354C118.267 29.5931 118.677 30.8325 119.086 32.0716C119.227 32.496 119.684 32.8174 120.14 32.6697C120.563 32.533 120.889 32.0719 120.738 31.6163Z" fill="#D45E7E"/>
<path d="M112.222 41.5074C111.725 41.394 111.351 41.6602 111.169 42.1055C110.56 43.5944 109.951 45.0828 109.342 46.5717C109.172 46.9875 109.526 47.5309 109.94 47.6251C110.438 47.7385 110.811 47.4723 110.994 47.0269C111.603 45.5381 112.212 44.0496 112.821 42.5608C112.991 42.1453 112.637 41.6016 112.222 41.5074Z" fill="#F4D645"/>
<path d="M109.997 62.0549C109.408 61.0285 108.819 60.0022 108.23 58.9755C108.007 58.5867 107.445 58.4188 107.058 58.6682C106.666 58.921 106.512 59.4239 106.751 59.8398C107.34 60.8661 107.929 61.8925 108.519 62.9192C108.742 63.308 109.304 63.4758 109.69 63.2265C110.082 62.9736 110.236 62.4707 109.997 62.0549Z" fill="#D45E7E"/>
</svg>
